<svg width="300px" height="300px" version="1.1" xmlns="http://www.w3.org/2000/svg" x="0px" y="0px" viewBox="0 0 400 400" xml:space="preserve">
    <path fill="#FCB03C" stroke-width="2" stroke="#FCB03C" d="M199.7,52.1l47.8,96.9l0.2,0.5l0.5,0.1l106.9,15.5l-77.4,75.4l-0.4,0.4l0.1,0.5l18.3,106.5l-95.6-50.3l-0.5-0.2l-0.5,0.2 l-95.6,50.3l18.3-106.5l0.1-0.5l-0.4-0.4l-77.4-75.4l106.9-15.5l0.5-0.1l0.2-0.5L199.7,52.1"/>
    <path id="star-path" fill-opacity="0" stroke-width="2" stroke="#FFF9F0" d="M199.7,52.1l47.8,96.9l0.2,0.5l0.5,0.1l106.9,15.5l-77.4,75.4l-0.4,0.4l0.1,0.5l18.3,106.5l-95.6-50.3l-0.5-0.2l-0.5,0.2 l-95.6,50.3l18.3-106.5l0.1-0.5l-0.4-0.4l-77.4-75.4l106.9-15.5l0.5-0.1l0.2-0.5L199.7,52.1"/>
</svg>
