<svg version="1.1" id="moon-scene" xmlns="http://www.w3.org/2000/svg" xmlns:xlink="http://www.w3.org/1999/xlink" x="0px" y="0px"
	 viewBox="0 0 100 100"  xml:space="preserve">
<linearGradient id="SVGID_1_" gradientUnits="userSpaceOnUse" x1="50" y1="80.8001" x2="50" y2="-2.1909">
	<stop  offset="1.427154e-03" style="stop-color:#85D8CE"/>
	<stop  offset="0.3398" style="stop-color:#509FAA"/>
	<stop  offset="0.6343" style="stop-color:#29748F"/>
	<stop  offset="0.8637" style="stop-color:#115A7E"/>
	<stop  offset="1" style="stop-color:#085078"/>
</linearGradient>
<rect fill="url(#SVGID_1_)" width="100" height="100"/>
<linearGradient id="SVGID_2_" gradientUnits="userSpaceOnUse" x1="76.5015" y1="15.4658" x2="89.2865" y2="15.4658">
	<stop  offset="1.427154e-03" style="stop-color:#D9E286"/>
	<stop  offset="9.859025e-02" style="stop-color:#DCE481"/>
	<stop  offset="0.6634" style="stop-color:#EEED67"/>
	<stop  offset="1" style="stop-color:#F4F05D"/>
</linearGradient>
<circle fill="url(#SVGID_2_)" cx="82.9" cy="15.5" r="6.4"/>
<radialGradient id="SVGID_3_" cx="62.2038" cy="69.3893" r="53.8666" gradientTransform="matrix(-0.392 0.92 -0.6172 -0.263 129.4185 30.4147)" gradientUnits="userSpaceOnUse">
	<stop  offset="0" style="stop-color:#AAC49F"/>
	<stop  offset="0.114" style="stop-color:#9BB092"/>
	<stop  offset="0.3445" style="stop-color:#828D7D"/>
	<stop  offset="0.5625" style="stop-color:#6F746D"/>
	<stop  offset="0.7608" style="stop-color:#646563"/>
	<stop  offset="0.9217" style="stop-color:#606060"/>
</radialGradient>
<rect y="74.8" fill="url(#SVGID_3_)" width="100" height="25.2"/>
<path fill="none" stroke="#000000" stroke-miterlimit="10" d="M0,38.7"/>

<path fill-opacity="0" stroke="#CCCCCC" stroke-width="2" id="meteor-path" fill="#CCCCCC" d="M0-0.1c0,0,1.4-0.1,3.9,0.2C5.1,0.2,6.6,0.5,8.3,1C10,1.4,11.9,2.1,13.8,3c1.9,1,3.9,2.2,5.9,3.7
	c0.5,0.4,1,0.8,1.4,1.2c0.5,0.4,1,0.8,1.4,1.3c0.5,0.4,0.9,0.9,1.4,1.4c0.5,0.5,0.9,1,1.4,1.5c1.8,2,3.6,4.1,5.2,6.4
	c1.6,2.3,3.1,4.8,4.5,7.3c1.3,2.5,2.5,5.2,3.5,7.8c1,2.6,1.8,5.3,2.5,7.9c0.6,2.6,1,5.2,1.3,7.6c0.3,2.5,0.5,4.8,0.6,6.9
	c0.1,2.1,0.1,4.1,0.1,5.8c0,1.7-0.1,3.3-0.2,4.5c-0.2,2.5-0.4,3.9-0.4,3.9l-0.2,0c0,0,0-1.4-0.1-3.9"/>

</svg>
