<?xml version="1.0" encoding="utf-8"?>
<!-- Generator: Adobe Illustrator 19.1.0, SVG Export Plug-In . SVG Version: 6.00 Build 0)  -->
<svg version="1.1" id="Layer_1" xmlns="http://www.w3.org/2000/svg" xmlns:xlink="http://www.w3.org/1999/xlink" x="0px" y="0px"
	 viewBox="-143 222 312.6 158" style="enable-background:new -143 222 312.6 158;" xml:space="preserve">
<style type="text/css">
	.st0{fill:none;stroke:#0FA0CE;stroke-width:6;stroke-miterlimit:10;}
	.st1{fill:none;stroke:#0FA0CE;stroke-width:6;stroke-miterlimit:10;stroke-dasharray:19.5103,7.0237;}
	.st2{fill:#0FA0CE;}
	.st3{fill:none;}
	.st4{enable-background:new    ;}
</style>
<g>
	<g>
		<path class="st0" d="M-112.3,242.9c0.2,3.9,0.4,8.1,0.5,12.5"/>
		<path class="st1" d="M-111.4,262.4c1,16.5,3.5,34.5,14,46.6"/>
		<path class="st0" d="M-95,311.6c2.9,2.8,6.3,5.1,10.3,7"/>
		<g>
			<polygon class="st2" points="-131.6,260.3 -127.9,263.4 -112.3,244.8 -94.9,261.7 -91.5,258.2 -112.7,237.6 			"/>
		</g>
	</g>
</g>
<rect x="-68.7" y="304" class="st3" width="208" height="65.3"/>
<g class="st4">
	<path class="st2" d="M-55.2,306.6c0,0.3-0.2,0.6-0.4,0.9c-0.3,0.4-0.6,0.6-0.9,0.6c-0.1,0-0.3,0-0.5-0.1s-0.3-0.1-0.4-0.1
		c-0.3,0-1.1,0.3-2.2,0.8c-1.3,0.5-2.2,1-2.8,1.5v4.8c0.1,0,0.5-0.3,1.2-0.7c0.5-0.3,0.9-0.5,1.2-0.5c0.3,0,0.9,0.5,1.7,1.5
		c0.8,1,1.3,1.6,1.2,2c0,0.3-0.2,0.6-0.5,0.9c-0.2,0.2-0.5,0.4-0.7,0.5c-0.1,0-0.2,0-0.4-0.1c-0.2-0.1-0.3-0.1-0.4-0.1
		c-0.1,0-0.1,0-0.2,0.1c-0.5,0.2-0.9,0.4-1.3,0.6c-1,0.4-1.6,0.8-1.8,1.1v3.8c0,0.2,0.1,0.3,0.3,0.6c0.2,0.2,0.3,0.4,0.3,0.7
		c0,1-0.5,1.6-1.4,1.7c-1-0.5-1.8-0.9-2.5-1.5c-0.7-0.6-1.1-1.1-1.1-1.6v-17.2c0-0.3-0.1-0.6-0.3-0.8c-0.2-0.3-0.3-0.5-0.2-0.6
		c0.1-0.3,0.2-0.5,0.5-0.8c0.3-0.3,0.6-0.4,0.9-0.4c0.2,0,0.6,0.2,1.4,0.7c0.8,0.5,1.3,0.8,1.6,0.8l2.9-1.2c0.2-0.2,0.6-0.4,1.2-0.6
		c0.4-0.1,1.2,0.3,2.2,1.2C-55.7,305.7-55.2,306.2-55.2,306.6z"/>
	<path class="st2" d="M-45.1,325.1c0,0.2-0.1,0.5-0.3,0.6c-0.2,0.2-0.4,0.2-0.7,0.2c-2.1-0.3-3.3-0.7-3.6-1.2c0-0.1-0.1-0.1-0.1-0.2
		c0-0.1,0-0.2,0.1-0.3c0.1-0.1,0.1-0.2,0.1-0.3c0-0.1,0.1-0.2,0.1-0.2c0-0.1,0-0.4,0-0.9c-0.2,0.2-0.5,0.6-0.9,1.2
		c-0.4,0.7-0.8,1.3-1.1,1.6c-0.6,0.5-1.2,0.8-1.9,0.8c-0.4,0-0.8-0.2-1.2-0.5c-0.2-0.2-0.5-0.5-1-1c-0.8-0.9-1.3-1.4-1.4-1.5
		c-0.4-0.5-0.5-0.9-0.5-1.4c0-0.1,0-0.3,0.1-0.4c0.3-1.5,1.4-3,3.1-4.3c1.2-1,3-2,5.3-3.1c0-0.6-0.1-0.9-0.4-1.1
		c-0.2-0.1-0.8,0.1-1.8,0.6c-1,0.5-1.8,0.9-2.2,1.3c-0.1,0.1-0.4,0.3-0.7,0.6c-0.3,0.2-0.6,0.2-0.8,0.2c-0.2-0.1-0.6-0.4-1.2-0.9
		s-1-1-1-1.1c-0.1-0.5,0-0.8,0.4-1.1c0,0,0.4-0.1,1-0.3c0.6-0.3,1.3-0.7,1.9-1c1.4-0.6,2.5-1,3.4-1c0.4,0,0.8,0.2,1.4,0.6
		c0.5,0.4,0.9,0.8,1.4,1.2s0.9,0.8,1.4,1.1c0.6,0.5,0.8,1,0.8,1.4v9.8C-45.1,324.6-45.1,324.9-45.1,325.1z M-49.2,317.5
		c-0.8,0.3-1.6,0.8-2.2,1.5c-0.5,0.6-0.9,1.1-1.4,1.6c-0.4,0.4-0.7,0.8-1,1.4c-0.3,0.6-0.5,1-0.5,1.3c0,0.1,0.1,0.2,0.2,0.2
		c0.4,0,1.2-0.8,2.4-2.4C-50.4,319.6-49.6,318.4-49.2,317.5z"/>
	<path class="st2" d="M-30.5,323.1c0,0.3-0.3,0.9-1,1.8c-0.7,0.9-1.2,1.3-1.6,1.2c-0.7-0.1-2.3-2.1-4.7-6c-0.2,0.2-0.5,0.5-0.9,0.9
		v3.1c0,0.1,0,0.2,0.1,0.5c0,0.2,0.1,0.4,0.1,0.5c0.1,0.6-0.1,1-0.4,1.1c-0.2,0.1-0.4,0.1-0.8,0.1c-0.7,0-1.3-0.1-1.9-0.4
		c-0.7-0.3-1.1-0.6-1.1-1v-19.3c0-0.3,0.1-0.6,0.3-0.9c0.2-0.3,0.4-0.5,0.6-0.6c0.1,0,0.1,0,0.2,0c0.5,0,1.1,0.2,1.9,0.5
		c0.8,0.3,1.3,0.6,1.3,0.8c0.1,0.1,0.1,0.2,0.1,0.3c0,0.1-0.1,0.3-0.2,0.5c-0.1,0.2-0.2,0.4-0.2,0.6v9l3.8-5.3
		c0.2-0.3,0.5-0.5,0.9-0.5c0.3,0,0.8,0.2,1.4,0.6c0.7,0.5,1,1,1,1.4c0,0.2-0.4,0.9-1.2,2c-1.3,1.8-2,2.9-2.3,3.3l3.4,4.7
		c0.1,0.2,0.4,0.4,0.8,0.5C-30.7,322.8-30.5,322.9-30.5,323.1z"/>
	<path class="st2" d="M-18.5,321.1c0.2,0.3-0.2,1-1,2.3c-0.9,1.4-1.8,2.3-2.7,2.8c-0.1,0.1-0.3,0.1-0.5,0.1c-0.7,0-1.6-0.2-2.7-0.6
		c-1.2-0.4-1.9-0.9-2.3-1.4c-1-1.3-1.5-3.1-1.5-5.4c0-2.2,0.4-4.1,1.3-5.8c1-1.8,2.2-2.7,3.6-2.8c0.5,0,1.2,0.1,1.9,0.4
		c0.9,0.4,1.7,0.9,2.3,1.5c0.2,0.2,0.3,0.6,0.4,1.4c0.2,0.8,0.3,1.6,0.3,2.4c0,1.2-0.2,2-0.6,2.4c-1.8,0.6-3.6,0.9-5.5,1
		c0,0.8,0.1,1.7,0.3,2.7c0.2,0.9,0.5,1.4,0.8,1.4c0.3,0,0.8-0.3,1.2-0.9c0.4-0.5,0.7-0.9,0.8-1.3c0.1-0.5,0.3-1.1,0.5-1.6
		c0.3,0,0.8,0.1,1.6,0.4C-19.1,320.6-18.6,320.9-18.5,321.1z M-23.1,313.1c-0.3,0-0.7,0.4-1.2,1.4c-0.5,1-0.8,1.9-0.9,2.8
		c0.8,0,1.4-0.2,1.9-0.6c0.3-0.2,0.4-1.1,0.4-2.6C-23,313.5-23.1,313.2-23.1,313.1z"/>
	<path class="st2" d="M-6,305.4c0,0.1,0,0.3-0.1,0.5c-0.1,0.2-0.1,0.3-0.1,0.4c-0.1,0.3-0.2,0.9-0.3,1.6v16c0,0.2,0.1,0.4,0.2,0.6
		c0.1,0.2,0.2,0.3,0.2,0.4c0,1.1-0.2,1.7-0.6,1.8c-0.2,0-0.7-0.1-1.7-0.4c-0.9-0.3-1.5-0.5-1.7-0.6c-0.4-0.3-0.6-0.6-0.6-0.9
		c0-0.1,0-0.1,0.1-0.2s0.1-0.2,0.1-0.4v-18.3c0-0.1,0-0.2-0.1-0.3c-0.1-0.1-0.1-0.2-0.1-0.3c0-0.4,0.4-0.7,1-0.8c0.2,0,0.5,0,1.1,0
		c0.6,0.1,1.2,0.1,1.7,0.3C-6.4,304.7-6,305-6,305.4z"/>
	<path class="st2" d="M4.7,310.7c1,0.5,1.7,1.4,2.2,2.7c0.5,1.2,0.7,2.7,0.7,4.4c0,2.3-0.4,4.4-1.2,6.1c-0.9,1.8-2,2.7-3.3,2.5
		c-0.5-0.1-1.2-0.3-2.2-0.4c-0.7-0.1-1.4-0.2-1.9-0.4c-1-0.3-1.8-1.1-2.4-2.5c-0.5-1.3-0.8-2.9-0.8-4.6c0-1.8,0.3-3.4,0.8-4.9
		c0.6-1.6,1.5-2.7,2.6-3.4c0.2-0.1,0.5-0.2,0.8-0.2c0.3,0,1,0.1,2.1,0.3C2.8,310.5,3.6,310.6,4.7,310.7z M1.8,313.1
		c-0.5,0-0.9,0.6-1.3,1.7c-0.4,1.1-0.6,2.2-0.6,3.3c0,1.2,0.1,2.5,0.4,3.7c0.3,1.3,0.7,2,1.1,2.1c0.6,0.1,1-0.5,1.5-1.9
		c0.4-1.3,0.6-2.8,0.6-4.4c0-0.9-0.1-1.8-0.3-2.6C2.9,313.7,2.4,313.1,1.8,313.1z"/>
	<path class="st2" d="M21.7,325.1c0,0.2-0.1,0.5-0.3,0.6c-0.2,0.2-0.4,0.2-0.7,0.2c-2.1-0.3-3.3-0.7-3.6-1.2c0-0.1-0.1-0.1-0.1-0.2
		c0-0.1,0-0.2,0.1-0.3c0.1-0.1,0.1-0.2,0.1-0.3c0-0.1,0.1-0.2,0.1-0.2c0-0.1,0-0.4,0-0.9c-0.2,0.2-0.5,0.6-0.9,1.2
		c-0.4,0.7-0.8,1.3-1.1,1.6c-0.6,0.5-1.2,0.8-1.9,0.8c-0.4,0-0.8-0.2-1.2-0.5c-0.2-0.2-0.5-0.5-1-1c-0.8-0.9-1.3-1.4-1.4-1.5
		c-0.4-0.5-0.5-0.9-0.5-1.4c0-0.1,0-0.3,0.1-0.4c0.3-1.5,1.4-3,3.1-4.3c1.2-1,3-2,5.3-3.1c0-0.6-0.1-0.9-0.4-1.1
		c-0.2-0.1-0.8,0.1-1.8,0.6c-1,0.5-1.8,0.9-2.2,1.3c-0.1,0.1-0.4,0.3-0.7,0.6c-0.3,0.2-0.6,0.2-0.8,0.2c-0.2-0.1-0.6-0.4-1.2-0.9
		s-1-1-1-1.1c-0.1-0.5,0-0.8,0.4-1.1c0,0,0.4-0.1,1-0.3c0.6-0.3,1.3-0.7,1.9-1c1.4-0.6,2.5-1,3.4-1c0.4,0,0.8,0.2,1.4,0.6
		c0.5,0.4,0.9,0.8,1.4,1.2c0.5,0.4,0.9,0.8,1.4,1.1c0.6,0.5,0.8,1,0.8,1.4v9.8C21.7,324.6,21.7,324.9,21.7,325.1z M17.6,317.5
		c-0.8,0.3-1.6,0.8-2.2,1.5c-0.5,0.6-0.9,1.1-1.4,1.6c-0.4,0.4-0.7,0.8-1,1.4c-0.3,0.6-0.5,1-0.5,1.3c0,0.1,0.1,0.2,0.2,0.2
		c0.4,0,1.2-0.8,2.4-2.4C16.4,319.6,17.2,318.4,17.6,317.5z"/>
	<path class="st2" d="M35.9,305.6c0,0.2,0,0.5-0.2,1c-0.2,0.5-0.2,0.8-0.2,0.9v17c0,0.6,0,0.9,0.1,1.1c0.3,0.5,0.3,0.8,0.2,0.9
		c-0.1,0.1-0.3,0.2-0.7,0.2c-0.4,0-1-0.1-1.8-0.2c-0.9-0.2-1.4-0.3-1.5-0.3c-0.3,0-0.5-0.2-0.7-0.6c0,0,0-0.1,0-0.3
		c0-0.7,0.1-1.8,0.3-3.2c-0.4,0.8-0.8,1.7-1.2,2.5c-0.6,1-1.1,1.5-1.5,1.4c-3.4-0.7-5.1-2.8-5.1-6.3c0-2,0.5-4,1.6-6.1
		c1.1-2,2.2-3.3,3.5-3.9c0.2-0.1,0.3-0.1,0.5-0.1c0.4,0,1.2,0.5,2.3,1.6v-5c0-0.1-0.1-0.4-0.2-0.7s-0.2-0.6-0.2-0.8
		c0-0.4,0.2-0.5,0.7-0.5c0.4,0,1.1,0.1,1.9,0.4c0.5,0.2,1,0.3,1.5,0.5C35.6,305,35.9,305.2,35.9,305.6z M31.4,312.4
		c-1,0.4-1.9,1.4-2.6,2.9c-0.8,1.5-1.2,2.8-1.2,4.1c0,1.5,0.6,2.3,1.7,2.4C29.9,321.8,30.6,318.7,31.4,312.4z"/>
	<path class="st2" d="M43.1,325.1c0.1,0.6-0.1,1-0.7,1.2c-0.1,0-0.2,0-0.4,0c-0.6,0-1.4-0.1-2.3-0.4c-1-0.3-1.6-0.6-1.7-0.9
		c-0.1-0.1,0-0.4,0.2-0.8c0.2-0.3,0.2-0.7,0.2-1.4v-10.9c-0.2-0.7-0.3-1.1-0.3-1.3c0-0.2,0.3-0.3,1-0.3c0.5,0,1.2,0.2,2.2,0.5
		c0.9,0.3,1.5,0.6,1.7,0.8c0.1,0.1,0.1,0.2,0.1,0.3c0,0.1-0.1,0.4-0.3,0.8c-0.2,0.4-0.3,0.7-0.3,0.9v10.5c0,0.2,0.1,0.4,0.3,0.6
		S43.1,325,43.1,325.1z M43.2,307.2c0,0,0,0.1,0,0.2c0,0.4-0.1,0.9-0.2,1.5c-0.2,0.7-0.3,1-0.5,1.1c-0.2,0.1-0.9-0.1-2.2-0.6
		s-2-0.8-2.1-0.9c-0.1-0.1-0.1-0.2-0.1-0.4c0-0.5,0.1-1,0.4-1.5c0.3-0.6,0.6-0.9,0.9-1c0.4-0.1,1.1,0.1,2.1,0.5
		C42.5,306.4,43,306.8,43.2,307.2z"/>
	<path class="st2" d="M57.5,324c0.1,0.3,0.2,0.7,0.2,1c0,0.5-0.2,0.9-0.6,1.1c-0.1,0.1-0.3,0.1-0.6,0.1c-0.6,0-1.3-0.1-2.1-0.3
		s-1.3-0.4-1.5-0.5c-0.1-0.1-0.1-0.2-0.1-0.3c0-0.2,0.1-0.5,0.4-0.9s0.4-0.7,0.4-0.9c0-6.8,0-10.3-0.2-10.3
		c-0.2-0.1-0.8,0.7-1.8,2.3c-1,1.7-1.5,3-1.5,3.9v4.9c0.2,0.2,0.3,0.5,0.3,0.8c0,0.7-0.3,1.1-0.9,1.4c-0.1,0-0.2,0.1-0.3,0.1
		c-0.5,0-1.2-0.1-2.1-0.3s-1.4-0.4-1.5-0.5c-0.1-0.1-0.2-0.3-0.2-0.5c0-0.2,0.1-0.4,0.3-0.6c0.2-0.2,0.3-0.4,0.3-0.5v-12.1
		c0-0.1-0.1-0.3-0.2-0.5c-0.1-0.2-0.2-0.4-0.1-0.6c0.1-0.4,0.4-0.6,0.8-0.7c0.3-0.1,0.9,0,2,0.3c1.1,0.3,1.7,0.6,1.8,0.9
		c0.1,0.2,0,0.5-0.1,0.9c-0.2,0.6-0.3,1-0.3,1c0,0.2,0,0.4,0.1,0.6c0.3-0.9,0.6-1.6,1.1-2.3c0.6-0.8,1.1-1.2,1.7-1.2
		c0.6,0,1.4,0.2,2.3,0.6c0.9,0.4,1.5,0.8,1.6,1.1C57.2,312.8,57.5,316.9,57.5,324z"/>
	<path class="st2" d="M70.9,311.9c0,0-0.1,0.2-0.3,0.5c-0.1,0.2-0.2,0.4-0.2,0.6v11.4c0,2.9-1.1,4.7-3.2,5.5c-1,0.4-1.9,0.6-2.7,0.6
		c-1.2,0-2.2-0.4-3.1-1.2c-0.2-0.2-0.7-0.7-1.2-1.4c0,0-0.2-0.2-0.5-0.5c-0.2-0.2-0.3-0.4-0.3-0.6c0-0.3,0.2-0.5,0.8-0.6
		c0.1,0,0.2,0,0.3,0c0.4,0,0.8,0.1,1.4,0.2s0.9,0.3,1.1,0.6c0.3,0.3,0.6,0.7,0.9,1.1c0.3,0.4,0.6,0.6,1,0.6c0.7,0.1,1.2-0.4,1.4-1.5
		c0.1-0.5,0.2-1.4,0.2-2.7c-0.1,0.1-0.2,0.3-0.5,0.7c-0.2,0.3-0.4,0.5-0.5,0.6c-0.2,0.2-0.4,0.3-0.6,0.3c-0.9,0-1.7-0.3-2.3-0.8
		c-1.9-1.6-2.8-3.9-2.8-6.9c0-1.9,0.4-3.6,1.2-5.2c0.8-1.6,2-2.7,3.3-3.1c0.1,0,0.2-0.1,0.3-0.1c0.3,0,0.6,0.1,0.9,0.4
		c0.3,0.2,0.6,0.5,0.9,0.7c0.1-0.3,0.2-0.6,0.3-0.9c0.1-0.3,0.3-0.4,0.5-0.5c0.4-0.1,1,0.1,1.9,0.4c0.9,0.3,1.5,0.5,1.6,0.7
		C71,311.3,71,311.6,70.9,311.9z M66.3,318.3c0.1-1.2,0.2-2.2,0.2-2.9c0-1.4-0.2-2.2-0.7-2.4c-0.4-0.1-0.8,0.5-1.3,1.8
		c-0.5,1.4-0.8,2.6-0.8,3.7c0,2,0.2,3.7,0.7,4.9C65.5,321.8,66.1,320.1,66.3,318.3z"/>
	<path class="st2" d="M89.6,312.5c0.4,0.8,0.6,1.9,0.6,3.1c0,1.6-0.3,3.4-1,5.3c-0.6,1.8-1.3,3.2-2.1,4.2c-0.1,0.3-0.1,0.5-0.2,0.5
		c-0.1,0.2-0.2,0.3-0.3,0.5c-0.2,0.2-0.7,0.3-1.2,0.3c-0.5,0-1-0.2-1.5-0.5c-0.1,0-0.5-0.3-1.2-0.9c0,0.1,0.1,0.3,0.2,0.6
		c0.1,0.2,0.1,0.3,0,0.5c-0.1,0.4-0.4,0.6-0.7,0.6c-0.4,0-1.1-0.1-2.2-0.4c-1-0.3-1.6-0.6-1.8-0.8c-0.1-0.2,0-0.5,0.2-0.9
		c0.1-0.2,0.1-0.5,0.1-1.1V306c0-0.1-0.1-0.2-0.2-0.5c-0.2-0.2-0.2-0.4-0.2-0.6c0.1-0.6,0.5-0.8,1.1-0.8c0.6,0,1.3,0.2,2.2,0.5
		c0.9,0.3,1.5,0.7,1.6,1c0.1,0.2,0,0.4-0.2,0.8s-0.3,0.7-0.3,1v4.3c1.4-1.4,2.5-2.1,3.4-2c0.6,0.1,1.2,0.4,1.9,0.9
		C88.7,311.1,89.2,311.8,89.6,312.5z M86.6,312.7c-0.7,0.3-1.4,0.8-2.2,1.6c-0.8,0.8-1.4,1.5-1.6,2v7c0.1,0.1,0.3,0.3,0.6,0.5
		c0.6,0.1,1.3-1.2,2.1-3.8c0.8-2.6,1.2-4.7,1.2-6.4C86.6,313.2,86.6,312.9,86.6,312.7z"/>
	<path class="st2" d="M104.2,325.1c0,0.2-0.1,0.5-0.3,0.6c-0.2,0.2-0.4,0.2-0.7,0.2c-2.1-0.3-3.3-0.7-3.6-1.2c0-0.1-0.1-0.1-0.1-0.2
		c0-0.1,0-0.2,0.1-0.3c0.1-0.1,0.1-0.2,0.1-0.3s0.1-0.2,0.1-0.2c0-0.1,0-0.4,0-0.9c-0.2,0.2-0.5,0.6-0.9,1.2
		c-0.4,0.7-0.8,1.3-1.1,1.6c-0.6,0.5-1.2,0.8-1.9,0.8c-0.4,0-0.8-0.2-1.2-0.5c-0.2-0.2-0.5-0.5-1-1c-0.8-0.9-1.3-1.4-1.4-1.5
		c-0.4-0.5-0.5-0.9-0.5-1.4c0-0.1,0-0.3,0.1-0.4c0.3-1.5,1.4-3,3.1-4.3c1.2-1,3-2,5.3-3.1c0-0.6-0.1-0.9-0.4-1.1
		c-0.2-0.1-0.8,0.1-1.8,0.6c-1,0.5-1.8,0.9-2.2,1.3c-0.1,0.1-0.4,0.3-0.7,0.6c-0.3,0.2-0.6,0.2-0.8,0.2c-0.2-0.1-0.6-0.4-1.2-0.9
		s-1-1-1-1.1c-0.1-0.5,0-0.8,0.4-1.1c0,0,0.4-0.1,1-0.3c0.6-0.3,1.3-0.7,1.9-1c1.4-0.6,2.5-1,3.4-1c0.4,0,0.8,0.2,1.4,0.6
		c0.5,0.4,0.9,0.8,1.4,1.2c0.5,0.4,0.9,0.8,1.4,1.1c0.6,0.5,0.8,1,0.8,1.4v9.8C104.1,324.6,104.2,324.9,104.2,325.1z M100,317.5
		c-0.8,0.3-1.6,0.8-2.2,1.5c-0.5,0.6-0.9,1.1-1.4,1.6c-0.4,0.4-0.7,0.8-1,1.4s-0.5,1-0.5,1.3c0,0.1,0.1,0.2,0.2,0.2
		c0.4,0,1.2-0.8,2.4-2.4C98.8,319.6,99.6,318.4,100,317.5z"/>
	<path class="st2" d="M116.3,311.9c0.1,0.3,0,0.5-0.3,0.7c-0.2,0.1-0.4,0.2-0.6,0.3c-1.1,1.7-2.6,3.9-4.4,6.7c0,2.8,0,4.2,0,4.3
		c0,0.1,0.1,0.3,0.2,0.7s0.2,0.6,0.2,0.8c0,0.3-0.1,0.6-0.4,0.7c-0.2,0.1-0.5,0.1-0.8,0.1c-0.7,0-1.4-0.1-2.2-0.4
		c-1-0.3-1.5-0.8-1.5-1.3c0-0.2,0.1-0.4,0.2-0.8s0.2-0.6,0.2-0.9v-10.3c-0.2-1-0.3-1.5-0.3-1.5c0-0.5,0.2-0.9,0.7-1
		c0.2-0.1,0.5-0.1,0.8-0.1c0.6,0,1.2,0.1,1.9,0.3c0.7,0.2,1.1,0.4,1.2,0.6c0,0.1,0.1,0.2,0.1,0.3c0,0.1-0.1,0.5-0.4,1.2v1.2
		c0.4-0.7,0.8-1.5,1.2-2.2c0.5-0.9,0.9-1.4,1.2-1.5c0.4-0.1,1,0.2,1.7,0.7C115.8,311.1,116.3,311.5,116.3,311.9z"/>
	<path class="st2" d="M-57.9,337.3c0,0.3,0,0.6-0.2,0.9c-0.2,0.3-0.4,0.5-0.6,0.5c-0.1,0-0.3-0.1-0.5-0.3c-0.2-0.2-0.4-0.3-0.5-0.3
		c-0.8-0.1-1.2,0.6-1.2,2.2c0,0.2,0,0.5,0,0.8c0,0.3,0,0.6,0,0.7h0.8c0.2,0,0.6,0.3,1.1,0.9c0.6,0.6,0.8,1.1,0.8,1.3
		c0,0.3-0.1,0.6-0.3,0.8c-0.2,0.2-0.4,0.4-0.6,0.4c-0.1,0-0.1,0-0.2,0c-0.2-0.1-0.8-0.1-1.6-0.1v10.3c0,0.1,0.1,0.3,0.2,0.5
		c0.1,0.2,0.2,0.4,0.2,0.6c-0.1,0.6-0.5,0.9-1.1,0.9c-0.3,0-1-0.1-2-0.5c-1.1-0.3-1.6-0.7-1.7-1c0-0.1,0-0.4,0.2-0.8
		c0.2-0.4,0.2-0.7,0.2-0.9v-9.2h-0.9c-0.3,0-0.7-0.3-1.2-0.9c-0.5-0.6-0.7-1-0.7-1.4c0-0.3,0.1-0.5,0.3-0.7c0.2-0.2,0.4-0.3,0.6-0.3
		h1.9c0-1.9,0.1-3.2,0.3-4c0.5-1.6,1.6-2.4,3.4-2.4c0.2,0,0.5,0,0.7,0c0.6,0.1,1.1,0.4,1.8,0.9C-58.3,336.7-58,337.1-57.9,337.3z"/>
	<path class="st2" d="M-48.6,341.9c1,0.5,1.7,1.4,2.2,2.7c0.5,1.2,0.7,2.7,0.7,4.4c0,2.3-0.4,4.4-1.2,6.1c-0.9,1.8-2,2.7-3.3,2.5
		c-0.5-0.1-1.2-0.3-2.2-0.4c-0.7-0.1-1.4-0.2-1.9-0.4c-1-0.3-1.8-1.1-2.4-2.5c-0.5-1.3-0.8-2.9-0.8-4.6c0-1.8,0.3-3.4,0.8-4.9
		c0.6-1.6,1.5-2.7,2.6-3.4c0.2-0.1,0.5-0.2,0.8-0.2c0.3,0,1,0.1,2.1,0.3C-50.5,341.7-49.6,341.8-48.6,341.9z M-51.5,344.3
		c-0.5,0-0.9,0.6-1.3,1.7c-0.4,1.1-0.6,2.2-0.6,3.3c0,1.2,0.1,2.5,0.4,3.7c0.3,1.3,0.7,2,1.1,2.1c0.6,0.1,1-0.5,1.5-1.9
		c0.4-1.3,0.6-2.8,0.6-4.4c0-0.9-0.1-1.8-0.3-2.6C-50.4,344.9-50.8,344.3-51.5,344.3z"/>
	<path class="st2" d="M-33.8,343.1c0.1,0.3,0,0.5-0.3,0.7c-0.2,0.1-0.4,0.2-0.6,0.3c-1.1,1.7-2.6,3.9-4.4,6.7c0,2.8,0,4.2,0,4.3
		c0,0.1,0.1,0.3,0.2,0.7c0.1,0.4,0.2,0.6,0.2,0.8c0,0.3-0.1,0.6-0.4,0.7c-0.2,0.1-0.5,0.1-0.8,0.1c-0.7,0-1.4-0.1-2.2-0.4
		c-1-0.3-1.5-0.8-1.5-1.3c0-0.2,0.1-0.4,0.2-0.8s0.2-0.6,0.2-0.9v-10.3c-0.2-1-0.3-1.5-0.3-1.5c0-0.5,0.2-0.9,0.7-1
		c0.2-0.1,0.5-0.1,0.8-0.1c0.6,0,1.2,0.1,1.9,0.3c0.7,0.2,1.1,0.4,1.2,0.6c0,0.1,0.1,0.2,0.1,0.3c0,0.1-0.1,0.5-0.4,1.2v1.2
		c0.4-0.7,0.8-1.5,1.2-2.2c0.5-0.9,0.9-1.4,1.2-1.5c0.4-0.1,1,0.2,1.7,0.7C-34.3,342.3-33.9,342.7-33.8,343.1z"/>
	<path class="st2" d="M-14.4,336.8c0,0.2,0,0.5-0.2,1s-0.2,0.8-0.2,0.9v17c0,0.6,0,0.9,0.1,1.1c0.3,0.5,0.3,0.8,0.2,0.9
		c-0.1,0.1-0.3,0.2-0.7,0.2c-0.4,0-1-0.1-1.8-0.2c-0.9-0.2-1.4-0.3-1.5-0.3c-0.3,0-0.5-0.2-0.7-0.6c0,0,0-0.1,0-0.3
		c0-0.7,0.1-1.8,0.3-3.2c-0.4,0.8-0.8,1.7-1.2,2.5c-0.6,1-1.1,1.5-1.5,1.4c-3.4-0.7-5.1-2.8-5.1-6.3c0-2,0.5-4,1.6-6.1
		c1.1-2,2.2-3.3,3.5-3.9c0.2-0.1,0.3-0.1,0.5-0.1c0.4,0,1.2,0.5,2.3,1.6v-5c0-0.1-0.1-0.4-0.2-0.7s-0.2-0.6-0.2-0.8
		c0-0.4,0.2-0.5,0.7-0.5c0.4,0,1.1,0.1,1.9,0.4c0.5,0.2,1,0.3,1.5,0.5C-14.7,336.2-14.4,336.4-14.4,336.8z M-18.9,343.6
		c-1,0.4-1.9,1.4-2.6,2.9c-0.8,1.5-1.2,2.8-1.2,4.1c0,1.5,0.6,2.3,1.7,2.4C-20.4,353-19.7,349.9-18.9,343.6z"/>
	<path class="st2" d="M-2.3,352.3c0.2,0.3-0.2,1-1,2.3c-0.9,1.4-1.8,2.3-2.7,2.8c-0.1,0.1-0.3,0.1-0.5,0.1c-0.7,0-1.6-0.2-2.7-0.6
		c-1.2-0.4-1.9-0.9-2.3-1.4c-1-1.3-1.5-3.1-1.5-5.4c0-2.2,0.4-4.1,1.3-5.8c1-1.8,2.2-2.7,3.6-2.8c0.5,0,1.2,0.1,1.9,0.4
		c0.9,0.4,1.7,0.9,2.3,1.5c0.2,0.2,0.3,0.6,0.4,1.4c0.2,0.8,0.3,1.6,0.3,2.4c0,1.2-0.2,2-0.6,2.4c-1.8,0.6-3.6,0.9-5.5,1
		c0,0.8,0.1,1.7,0.3,2.7c0.2,0.9,0.5,1.4,0.8,1.4c0.3,0,0.8-0.3,1.2-0.9c0.4-0.5,0.7-0.9,0.8-1.3c0.1-0.5,0.3-1.1,0.5-1.6
		c0.3,0,0.8,0.1,1.6,0.4C-2.9,351.8-2.4,352.1-2.3,352.3z M-6.9,344.3c-0.3,0-0.7,0.4-1.2,1.4c-0.5,1-0.8,1.9-0.9,2.8
		c0.8,0,1.4-0.2,1.9-0.6c0.3-0.2,0.4-1.1,0.4-2.6C-6.8,344.7-6.8,344.4-6.9,344.3z"/>
	<path class="st2" d="M18.8,355.2c0.1,0.3,0.2,0.7,0.2,1c0,0.5-0.2,0.9-0.6,1.1c-0.1,0.1-0.3,0.1-0.7,0.1c-0.6,0-1.3-0.1-2.1-0.3
		c-0.8-0.2-1.3-0.4-1.5-0.5c-0.1-0.1-0.1-0.2-0.1-0.3c0-0.2,0.1-0.5,0.4-0.9c0.3-0.4,0.4-0.7,0.4-0.9c0-6.8,0-10.3-0.2-10.3
		c-0.3-0.1-0.8,0.6-1.7,2.1c-0.9,1.6-1.4,3-1.4,4.2v5.1c0.1,0.4,0.2,0.7,0.2,0.9c0,0.4-0.2,0.8-0.7,1c-0.1,0.1-0.3,0.1-0.6,0.1
		c-0.6,0-1.3-0.1-2.1-0.3c-0.8-0.2-1.3-0.4-1.5-0.5c-0.1-0.1-0.1-0.2-0.1-0.3c0-0.2,0.1-0.5,0.4-0.9c0.3-0.5,0.4-0.8,0.4-1
		c0-6.8,0-10.3-0.2-10.3c-0.2-0.1-0.8,0.7-1.8,2.3c-1,1.7-1.5,3-1.5,3.9v4.9c0.2,0.2,0.3,0.5,0.3,0.8c0,0.7-0.3,1.1-0.9,1.4
		c-0.1,0-0.2,0.1-0.3,0.1c-0.5,0-1.2-0.1-2.1-0.3s-1.4-0.4-1.5-0.5c-0.1-0.1-0.2-0.3-0.2-0.5c0-0.2,0.1-0.4,0.3-0.6
		c0.2-0.2,0.3-0.4,0.3-0.5v-12.1c0-0.1-0.1-0.3-0.2-0.5c-0.1-0.2-0.2-0.4-0.1-0.6c0.1-0.4,0.4-0.6,0.8-0.7c0.3-0.1,0.9,0,1.9,0.3
		c1.1,0.3,1.7,0.6,1.8,0.9c0.1,0.2,0,0.5-0.1,0.9c-0.2,0.6-0.3,1-0.3,1c0,0.2,0,0.4,0.1,0.6c0.3-0.9,0.6-1.6,1.1-2.3
		c0.6-0.8,1.1-1.2,1.7-1.2c0.6,0,1.3,0.2,2.3,0.7c0.9,0.4,1.4,0.8,1.6,1.1c0.2,0.2,0.3,0.8,0.5,1.9c0.7-1.3,1.1-2.1,1.2-2.3
		c0.6-0.9,1.2-1.3,1.7-1.3c0.6,0,1.4,0.2,2.3,0.6c0.9,0.4,1.5,0.8,1.6,1.1C18.6,344,18.8,348.1,18.8,355.2z"/>
	<path class="st2" d="M30,341.9c1,0.5,1.7,1.4,2.2,2.7c0.5,1.2,0.7,2.7,0.7,4.4c0,2.3-0.4,4.4-1.2,6.1c-0.9,1.8-2,2.7-3.3,2.5
		c-0.5-0.1-1.2-0.3-2.2-0.4c-0.7-0.1-1.4-0.2-1.9-0.4c-1-0.3-1.8-1.1-2.4-2.5c-0.5-1.3-0.8-2.9-0.8-4.6c0-1.8,0.3-3.4,0.8-4.9
		c0.6-1.6,1.5-2.7,2.6-3.4c0.2-0.1,0.5-0.2,0.8-0.2c0.3,0,1,0.1,2.1,0.3C28.1,341.7,29,341.8,30,341.9z M27.1,344.3
		c-0.5,0-0.9,0.6-1.3,1.7c-0.4,1.1-0.6,2.2-0.6,3.3c0,1.2,0.1,2.5,0.4,3.7c0.3,1.3,0.7,2,1.1,2.1c0.6,0.1,1-0.5,1.5-1.9
		c0.4-1.3,0.6-2.8,0.6-4.4c0-0.9-0.1-1.8-0.3-2.6C28.3,344.9,27.8,344.3,27.1,344.3z"/>
</g>
</svg>
