<?xml version="1.0" encoding="utf-8"?>
<!-- Generator: Adobe Illustrator 19.1.0, SVG Export Plug-In . SVG Version: 6.00 Build 0)  -->
<svg version="1.1" id="Layer_1" xmlns="http://www.w3.org/2000/svg" xmlns:xlink="http://www.w3.org/1999/xlink" x="0px" y="0px"
	 viewBox="-143 222 312.6 158" style="enable-background:new -143 222 312.6 158;" xml:space="preserve">
<style type="text/css">
	.st0{fill:none;stroke:#0FA0CE;stroke-width:6;stroke-miterlimit:10;}
	.st1{fill:none;stroke:#0FA0CE;stroke-width:6;stroke-miterlimit:10;stroke-dasharray:19.5103,7.0237;}
	.st2{fill:#0FA0CE;}
</style>
<g>
	<g>
		<path class="st0" d="M-102.8,240.4c0.2,3.9,0.4,8.1,0.5,12.5"/>
		<path class="st1" d="M-101.9,260c1,16.5,3.5,34.5,14,46.6"/>
		<path class="st0" d="M-85.5,309.2c2.9,2.8,6.3,5.1,10.3,7"/>
		<g>
			<polygon class="st2" points="-122.2,257.8 -118.4,261 -102.8,242.4 -85.4,259.2 -82,255.8 -103.2,235.2 			"/>
		</g>
	</g>
</g>
<g>
	<path class="st2" d="M-35.2,314.4c0,0.2-0.1,0.5-0.1,1.1c0,0.3-0.1,0.5-0.2,0.7c-0.1,0.1-0.2,0.1-0.4,0.1c-0.6,0-1.3-0.1-2.1-0.4
		c-0.9-0.3-1.5-0.6-1.9-1c-0.1-0.2-0.3-0.7-0.4-1.6c-0.2-1.2-0.4-2.1-0.6-2.9c-0.7,0.1-1.6,0.3-2.9,0.7s-2.1,0.7-2.5,1
		c-0.3,0.7-0.6,1.7-1,2.8c-0.1,0.2-0.1,0.5-0.2,0.7c-0.1,0.2-0.2,0.4-0.5,0.5c-0.1,0-0.1,0.1-0.2,0.1c-0.4,0-1.1-0.2-2.1-0.6
		c-1-0.4-1.5-0.7-1.5-0.9c-0.1-0.2,0.1-0.8,0.5-1.8c0.6-1.4,0.9-2.2,1-2.5c-0.4-0.4-0.5-0.7-0.5-1.1c0-0.1,0-0.2,0-0.3
		c0-0.2,0.6-0.6,1.6-1.1l3.4-11.5c0.1-0.2,0.1-0.6,0-1.1c0-0.5,0-0.8,0.2-0.9c0.1-0.1,0.3-0.1,0.6-0.1c0.8,0,2,0.2,3.5,0.6
		c1.5,0.4,2.4,0.8,2.7,1.1c0.1,1.9,0.5,4.8,1.2,8.7C-37,309.3-36.1,312.6-35.2,314.4z M-42,306.5c-0.2-1.1-0.4-1.8-0.4-2.2
		c-0.2-1.2-0.3-2.4-0.4-3.6c-0.3,0.8-0.8,2-1.2,3.5c-0.5,1.6-0.8,2.6-0.8,3C-44.5,307.1-43.5,306.9-42,306.5z"/>
	<path class="st2" d="M-28.3,295.4c0,0.1,0,0.3-0.1,0.5c-0.1,0.2-0.1,0.3-0.1,0.4c-0.1,0.3-0.2,0.9-0.3,1.6v16
		c0,0.2,0.1,0.4,0.2,0.6c0.1,0.2,0.2,0.3,0.2,0.4c0,1.1-0.2,1.7-0.6,1.8c-0.2,0-0.7-0.1-1.7-0.4c-0.9-0.3-1.5-0.5-1.7-0.6
		c-0.4-0.3-0.6-0.6-0.6-0.9c0-0.1,0-0.1,0.1-0.2s0.1-0.2,0.1-0.4v-18.3c0-0.1,0-0.2-0.1-0.3c-0.1-0.1-0.1-0.2-0.1-0.3
		c0-0.4,0.4-0.7,1-0.8c0.2,0,0.5,0,1.1,0c0.6,0.1,1.2,0.1,1.7,0.3C-28.7,294.8-28.3,295-28.3,295.4z"/>
	<path class="st2" d="M-16.9,313.1c0,1-0.3,1.7-0.9,2.3c-0.6,0.6-1.5,0.9-2.7,0.9c-0.3,0-0.6,0-0.9-0.1c-0.6-0.2-0.9-0.2-0.9-0.3
		c-0.3-0.1-0.6-0.1-0.9-0.2c-0.3-0.1-0.6-0.2-0.8-0.4c-0.4-0.3-0.8-0.8-1.1-1.4c-0.3-0.5-0.6-1-0.9-1.5c-0.3-0.5-0.4-0.8-0.4-0.9
		c0-0.2,0.2-0.4,0.5-0.5c0.1,0,0.2-0.1,0.5-0.1c0.5,0,1.2,0.1,2,0.2c0.8,0.1,1.2,0.2,1.3,0.3s0.2,0.6,0.3,1.5
		c0.1,0.8,0.3,1.2,0.5,1.2c0.4,0,0.6-0.5,0.6-1.6c0-1.4-0.4-2.2-1.1-2.6c-1.7-0.8-2.8-1.5-3.3-2.1c-0.6-0.7-1-1.9-1-3.4
		c0-1,0.3-1.9,0.8-2.8c0.5-0.9,1.1-1.4,1.8-1.6c0.3-0.1,1.3,0.3,3,1c0.2,0.1,0.6,0.1,1.4,0.3c0.5,0.1,0.9,0.3,1.1,0.5
		c0.3,0.4,0.5,1,0.6,1.9c0,0.6,0,1.3,0,1.9c0.1,0.6,0.2,0.9,0.2,1c0,0.5-0.2,0.8-0.7,0.8c-0.2,0-0.7-0.1-1.4-0.3
		c-0.8-0.3-1.3-0.5-1.5-0.8c-0.1-0.1-0.1-0.7-0.2-2c-0.1-1.2-0.2-1.7-0.4-1.7c-0.3,0-0.5,0.3-0.7,1c-0.2,0.7-0.3,1.4-0.3,2.1
		c0,0.9,0.2,1.5,0.6,1.7c0.8,0.5,1.7,0.9,2.5,1.4c0.8,0.5,1.4,1,1.8,1.5C-17.1,311.1-16.9,312-16.9,313.1z"/>
	<path class="st2" d="M-6.2,300.8c1,0.5,1.7,1.4,2.2,2.7c0.5,1.2,0.7,2.7,0.7,4.4c0,2.3-0.4,4.4-1.2,6.1c-0.9,1.8-2,2.7-3.3,2.5
		c-0.5-0.1-1.2-0.3-2.2-0.4c-0.7-0.1-1.4-0.2-1.9-0.4c-1-0.3-1.8-1.1-2.4-2.5c-0.5-1.3-0.8-2.9-0.8-4.6c0-1.8,0.3-3.4,0.8-4.9
		c0.6-1.6,1.5-2.7,2.6-3.4c0.2-0.1,0.5-0.2,0.8-0.2c0.3,0,1,0.1,2.1,0.3C-8.1,300.5-7.2,300.6-6.2,300.8z M-9.1,303.1
		c-0.5,0-0.9,0.6-1.3,1.7c-0.4,1.1-0.6,2.2-0.6,3.3c0,1.2,0.1,2.5,0.4,3.7c0.3,1.3,0.7,2,1.1,2.1c0.6,0.1,1-0.5,1.5-1.9
		c0.4-1.3,0.6-2.8,0.6-4.4c0-0.9-0.1-1.8-0.3-2.6C-7.9,303.7-8.4,303.1-9.1,303.1z"/>
	<path class="st2" d="M23.2,314c0.1,0.3,0.2,0.7,0.2,1c0,0.5-0.2,0.9-0.6,1.1c-0.1,0.1-0.3,0.1-0.6,0.1c-0.6,0-1.3-0.1-2.1-0.3
		c-0.8-0.2-1.3-0.4-1.5-0.5c-0.1-0.1-0.1-0.2-0.1-0.3c0-0.2,0.1-0.5,0.4-0.9c0.3-0.4,0.4-0.7,0.4-0.9c0-6.8,0-10.3-0.2-10.3
		c-0.3-0.1-0.8,0.6-1.7,2.1c-0.9,1.6-1.4,3-1.4,4.2v5.1c0.1,0.4,0.2,0.7,0.2,0.9c0,0.4-0.2,0.8-0.7,1c-0.1,0.1-0.3,0.1-0.6,0.1
		c-0.6,0-1.3-0.1-2.1-0.3c-0.8-0.2-1.3-0.4-1.5-0.5c-0.1-0.1-0.1-0.2-0.1-0.3c0-0.2,0.1-0.5,0.4-0.9c0.3-0.5,0.4-0.8,0.4-1
		c0-6.8,0-10.3-0.2-10.3c-0.2-0.1-0.8,0.7-1.8,2.3c-1,1.7-1.5,3-1.5,3.9v4.9c0.2,0.2,0.3,0.5,0.3,0.8c0,0.7-0.3,1.1-0.9,1.4
		c-0.1,0-0.2,0.1-0.3,0.1c-0.5,0-1.2-0.1-2.1-0.3s-1.4-0.4-1.5-0.5c-0.1-0.1-0.2-0.3-0.2-0.5c0-0.2,0.1-0.4,0.3-0.6
		c0.2-0.2,0.3-0.4,0.3-0.5v-12.1c0-0.1-0.1-0.3-0.2-0.5c-0.1-0.2-0.2-0.4-0.1-0.6c0.1-0.4,0.4-0.6,0.8-0.7c0.3-0.1,0.9,0,1.9,0.3
		c1.1,0.3,1.7,0.6,1.8,0.9c0.1,0.2,0,0.5-0.1,0.9c-0.2,0.6-0.3,1-0.3,1c0,0.2,0,0.4,0.1,0.6c0.3-0.9,0.6-1.6,1.1-2.3
		c0.6-0.8,1.1-1.2,1.7-1.2c0.6,0,1.3,0.2,2.3,0.6c0.9,0.4,1.4,0.8,1.6,1.1c0.2,0.2,0.3,0.8,0.5,1.9c0.7-1.3,1.1-2.1,1.2-2.3
		c0.6-0.9,1.2-1.3,1.7-1.3c0.6,0,1.4,0.2,2.3,0.6c0.9,0.4,1.5,0.8,1.6,1.1C23,302.8,23.2,306.9,23.2,314z"/>
	<path class="st2" d="M37.7,315.1c0,0.2-0.1,0.5-0.3,0.6c-0.2,0.2-0.4,0.2-0.7,0.2c-2.1-0.3-3.3-0.7-3.6-1.2c0-0.1-0.1-0.1-0.1-0.2
		c0-0.1,0-0.2,0.1-0.3c0.1-0.1,0.1-0.2,0.1-0.3s0.1-0.2,0.1-0.2c0-0.1,0-0.4,0-0.9c-0.2,0.2-0.5,0.6-0.9,1.2
		c-0.4,0.7-0.8,1.3-1.1,1.6c-0.6,0.5-1.2,0.8-1.9,0.8c-0.4,0-0.8-0.2-1.2-0.5c-0.2-0.2-0.5-0.5-1-1c-0.8-0.9-1.3-1.4-1.4-1.5
		c-0.4-0.5-0.5-0.9-0.5-1.4c0-0.1,0-0.3,0.1-0.4c0.3-1.5,1.4-3,3.1-4.3c1.2-1,3-2,5.3-3.1c0-0.6-0.1-0.9-0.4-1.1
		c-0.2-0.1-0.8,0.1-1.8,0.6c-1,0.5-1.8,0.9-2.2,1.3c-0.1,0.1-0.4,0.3-0.7,0.6c-0.3,0.2-0.6,0.2-0.8,0.2c-0.2-0.1-0.6-0.4-1.2-0.9
		s-1-1-1-1.1c-0.1-0.5,0-0.8,0.4-1.1c0,0,0.4-0.1,1-0.3c0.6-0.3,1.3-0.7,1.9-1c1.4-0.6,2.5-1,3.4-1c0.4,0,0.8,0.2,1.4,0.6
		c0.5,0.4,0.9,0.8,1.4,1.2c0.5,0.4,0.9,0.8,1.4,1.1c0.6,0.5,0.8,1,0.8,1.4v9.8C37.7,314.6,37.7,314.9,37.7,315.1z M33.6,307.5
		c-0.8,0.3-1.6,0.8-2.2,1.5c-0.5,0.6-0.9,1.1-1.4,1.6c-0.4,0.4-0.7,0.8-1,1.4c-0.3,0.6-0.5,1-0.5,1.3c0,0.1,0.1,0.2,0.2,0.2
		c0.4,0,1.2-0.8,2.4-2.4C32.4,309.6,33.2,308.4,33.6,307.5z"/>
	<path class="st2" d="M51.9,295.7c0,0.2,0,0.5-0.2,1c-0.2,0.5-0.2,0.8-0.2,0.9v17c0,0.6,0,0.9,0.1,1.1c0.3,0.5,0.3,0.8,0.2,0.9
		c-0.1,0.1-0.3,0.2-0.7,0.2c-0.4,0-1-0.1-1.8-0.2c-0.9-0.2-1.4-0.3-1.5-0.3c-0.3,0-0.5-0.2-0.7-0.6c0,0,0-0.1,0-0.3
		c0-0.7,0.1-1.8,0.3-3.2c-0.4,0.8-0.8,1.7-1.2,2.5c-0.6,1-1.1,1.5-1.5,1.4c-3.4-0.7-5.1-2.8-5.1-6.3c0-2,0.5-4,1.6-6.1
		c1.1-2,2.2-3.3,3.5-3.9c0.2-0.1,0.3-0.1,0.5-0.1c0.4,0,1.2,0.5,2.3,1.6v-5c0-0.1-0.1-0.4-0.2-0.7c-0.1-0.4-0.2-0.6-0.2-0.8
		c0-0.4,0.2-0.5,0.7-0.5c0.4,0,1.1,0.1,1.9,0.4c0.5,0.2,1,0.3,1.5,0.5C51.6,295,51.9,295.2,51.9,295.7z M47.4,302.4
		c-1,0.4-1.9,1.4-2.6,2.9c-0.8,1.5-1.2,2.8-1.2,4.1c0,1.5,0.6,2.3,1.7,2.4C45.9,311.8,46.6,308.7,47.4,302.4z"/>
	<path class="st2" d="M64,311.1c0.2,0.3-0.2,1-1,2.3c-0.9,1.4-1.8,2.3-2.7,2.8c-0.1,0.1-0.3,0.1-0.5,0.1c-0.7,0-1.6-0.2-2.7-0.6
		c-1.2-0.4-1.9-0.9-2.3-1.4c-1-1.3-1.5-3.1-1.5-5.4c0-2.2,0.4-4.1,1.3-5.8c1-1.8,2.2-2.7,3.6-2.8c0.5,0,1.2,0.1,2,0.4
		c0.9,0.4,1.7,0.9,2.3,1.5c0.2,0.2,0.3,0.6,0.4,1.4c0.2,0.8,0.3,1.6,0.3,2.4c0,1.2-0.2,2-0.6,2.4c-1.8,0.6-3.6,0.9-5.5,1
		c0,0.8,0.1,1.7,0.3,2.7c0.2,0.9,0.5,1.4,0.8,1.4c0.3,0,0.8-0.3,1.2-0.9c0.4-0.5,0.7-0.9,0.8-1.3c0.1-0.5,0.3-1.1,0.5-1.6
		c0.3,0,0.8,0.1,1.6,0.4C63.4,310.6,63.9,310.9,64,311.1z M59.4,303.2c-0.3,0-0.7,0.4-1.2,1.4c-0.5,1-0.8,1.9-0.9,2.8
		c0.8,0,1.4-0.2,1.9-0.6c0.3-0.2,0.4-1.1,0.4-2.6C59.5,303.5,59.5,303.2,59.4,303.2z"/>
	<path class="st2" d="M89,301.9c-0.8,2.2-1.6,4.9-2.4,8.1c-0.7,2.8-1.1,4.4-1.1,4.8c0,0.3,0,0.7,0,1c0,0.5-0.2,0.7-0.5,0.8
		c-0.2,0-1-0.1-2.2-0.4c-1.3-0.3-2-0.6-2.1-0.8c0-0.1-0.1-0.5-0.1-1.2c-0.5-1.4-0.8-3.6-1.1-6.5c-0.1,0.5-0.4,1.8-0.9,3.8
		c-0.4,1.5-0.6,2.5-0.6,3c0,0.4,0,0.7-0.1,1.1c0,0.5-0.2,0.8-0.5,0.9c-0.1,0-0.2,0-0.3,0c-0.6,0-1.3-0.1-2.1-0.4
		c-0.9-0.3-1.4-0.6-1.6-1c-0.1-0.1-0.1-0.3,0-0.4c0-0.2,0-0.4,0-0.7c-0.4-1.9-0.7-3.8-1.1-5.7c-0.4-2-0.7-4-0.9-6
		c-0.1-0.6-0.1-0.9-0.1-0.9c0-0.7,0.2-1.1,0.7-1c0.4,0,1,0.2,1.9,0.5c0.9,0.4,1.4,0.7,1.5,0.9c0,0.1,0,0.5-0.1,1.1
		c0.1,1.3,0.4,3.7,0.8,7.1l1.8-8.6c0.1-0.6,0.4-1,0.8-1.1c0.1,0,0.7,0.2,1.6,0.6s1.4,0.7,1.4,0.9c0.1,1.6,0.5,4.3,1.1,8.1
		c1-5,1.7-7.9,2.1-8.7c0.1-0.7,0.5-0.9,1-0.9c0.4,0.1,1,0.2,1.6,0.6C88.4,301.2,88.9,301.5,89,301.9z"/>
	<path class="st2" d="M95.9,315.1c0.1,0.6-0.1,1-0.6,1.2c-0.1,0-0.2,0-0.4,0c-0.6,0-1.4-0.1-2.3-0.4c-1-0.3-1.6-0.6-1.7-0.9
		c-0.1-0.1,0-0.4,0.2-0.8c0.2-0.3,0.2-0.7,0.2-1.4v-10.9c-0.2-0.7-0.3-1.1-0.3-1.3c0-0.2,0.3-0.3,1-0.3c0.5,0,1.2,0.2,2.2,0.5
		c0.9,0.3,1.5,0.6,1.7,0.8c0.1,0.1,0.1,0.2,0.1,0.3c0,0.1-0.1,0.4-0.3,0.8c-0.2,0.4-0.3,0.7-0.3,0.9v10.5c0,0.2,0.1,0.4,0.3,0.6
		S95.9,315,95.9,315.1z M96,297.2c0,0,0,0.1,0,0.2c0,0.4-0.1,0.9-0.2,1.5c-0.2,0.7-0.3,1-0.5,1.1c-0.2,0.1-0.9-0.1-2.2-0.6
		c-1.3-0.4-2-0.8-2.1-0.9c-0.1-0.1-0.1-0.2-0.1-0.4c0-0.5,0.1-1,0.4-1.5c0.3-0.6,0.6-0.9,0.9-1c0.4-0.1,1.1,0.1,2.1,0.5
		C95.2,296.4,95.8,296.8,96,297.2z"/>
	<path class="st2" d="M107.5,302.9c0,0.3-0.1,0.6-0.3,0.8c-0.2,0.2-0.4,0.4-0.6,0.4c-0.1,0-0.1,0-0.2,0c-0.2-0.1-0.8-0.1-1.6-0.1
		v10.3c0,0,0.1,0.1,0.2,0.4c0.1,0.3,0.2,0.6,0.2,0.8c0,0.5-0.3,0.8-1,0.8c-0.4,0-1-0.1-2-0.5c-1.1-0.3-1.6-0.7-1.7-1
		c0-0.1,0-0.4,0.2-0.8c0.2-0.4,0.2-0.7,0.2-0.9v-9.2h-0.9c-0.3,0-0.7-0.3-1.2-0.9c-0.5-0.6-0.7-1-0.7-1.4c0-0.3,0.1-0.5,0.3-0.7
		s0.4-0.3,0.7-0.3h1.9v-2.3c-0.3-0.3-0.4-0.7-0.4-1.1c0-0.4,0.2-0.6,0.5-0.7c0.2,0,0.4-0.1,0.6-0.1c0.6,0,1.4,0.1,2.2,0.3
		c0.9,0.2,1.4,0.4,1.7,0.6c0.1,0.1,0.2,0.2,0.2,0.4c0,0.2-0.1,0.4-0.4,0.8c-0.3,0.3-0.4,0.6-0.4,0.7v1.4h0.8c0.2,0,0.5,0.3,1.1,0.9
		C107.2,302.2,107.5,302.7,107.5,302.9z"/>
	<path class="st2" d="M121.2,315.1c-0.1,0.5-0.3,0.8-0.6,1c-0.1,0.1-0.3,0.1-0.6,0.1c-0.6,0-1.3-0.1-2.1-0.3s-1.3-0.4-1.5-0.5
		c-0.1-0.1-0.1-0.2-0.1-0.3c0-0.1,0.1-0.4,0.2-0.8c0.1-0.1,0.2-0.3,0.3-0.5c0.1-0.2,0.2-0.4,0.2-0.6c0-6.8,0-10.3-0.2-10.3
		c-0.3-0.1-0.9,0.5-1.8,1.9c-1,1.4-1.5,2.6-1.5,3.5v5.8c0.3,0.3,0.4,0.6,0.3,1.1c-0.1,0.5-0.4,0.9-0.8,1.1c-0.1,0-0.2,0.1-0.3,0.1
		c-0.5,0-1.2-0.1-2.1-0.3s-1.4-0.4-1.5-0.5c-0.2-0.3-0.2-0.6-0.1-1c0-0.1,0.1-0.1,0.2-0.3s0.2-0.3,0.2-0.4v-18.4
		c0-0.1-0.1-0.3-0.2-0.5c-0.1-0.2-0.2-0.4-0.1-0.6c0.1-0.4,0.4-0.6,0.8-0.7c0.3-0.1,0.9,0,2,0.3c1.1,0.3,1.7,0.6,1.8,0.9
		c0.1,0.2,0,0.5-0.1,0.9c-0.1,0.4-0.2,0.8-0.2,1.4v4.9c1-1.2,1.9-1.8,2.8-1.8c0.6,0,1.4,0.2,2.3,0.6c0.9,0.4,1.5,0.8,1.6,1.1
		c0.5,1.1,0.7,5.2,0.7,12.3C121.2,314.4,121.3,314.8,121.2,315.1z"/>
	<path class="st2" d="M-41.3,327c1.7,0.9,2.5,2.4,2.5,4.5c0,1.6-0.6,3.5-1.8,5.9c-1.4,2.7-2.8,4-4.2,4c-0.3,0-0.6-0.1-0.9-0.4
		c-0.3-0.3-0.7-0.5-1-0.8v4.4c0,0.2,0,0.5,0.1,0.8c0.1,0.4,0.2,0.7,0.2,0.9c0,0.2,0,0.4-0.2,0.8s-0.4,0.6-0.7,0.7
		c-0.3,0-1-0.2-2-0.7c-1.1-0.5-1.8-0.9-2-1.3c-0.2-0.2-0.2-0.6,0-1.1c0.1-0.4,0.2-0.7,0.2-0.9v-16.1c0-0.1-0.1-0.3-0.2-0.6
		s-0.2-0.5-0.2-0.6c0.1-0.8,0.4-1.2,0.9-1.2c0.1,0,0.4,0.1,1.1,0.3s1.1,0.3,1.5,0.3c0.5,0,1.2-0.1,2-0.4c0.8-0.3,1.4-0.4,1.8-0.4
		c0.2,0,0.4,0,0.6,0.1c0.4,0.1,0.8,0.4,1.2,0.8C-41.9,326.6-41.5,326.9-41.3,327z M-43.4,329c-0.4,0-1,0.2-1.7,0.6
		c-0.7,0.4-1.3,0.9-1.6,1.4v6.3c0.9-0.3,1.8-1.4,2.7-3.2c0.8-1.7,1.1-3.1,1.1-4.2C-42.9,329.3-43.1,329-43.4,329z"/>
	<path class="st2" d="M-27.3,333.1c0.1,0.3,0,0.5-0.3,0.7c-0.2,0.1-0.4,0.2-0.6,0.3c-1.1,1.7-2.6,3.9-4.4,6.7c0,2.8,0,4.2,0,4.3
		c0,0.1,0.1,0.3,0.2,0.7c0.1,0.4,0.2,0.6,0.2,0.8c0,0.3-0.1,0.6-0.4,0.7c-0.2,0.1-0.5,0.1-0.8,0.1c-0.7,0-1.4-0.1-2.2-0.4
		c-1-0.3-1.5-0.8-1.5-1.3c0-0.2,0.1-0.4,0.2-0.8s0.2-0.6,0.2-0.9v-10.3c-0.2-1-0.3-1.5-0.3-1.5c0-0.5,0.2-0.9,0.7-1
		c0.2-0.1,0.5-0.1,0.8-0.1c0.6,0,1.2,0.1,1.9,0.3c0.7,0.2,1.1,0.4,1.2,0.6c0,0.1,0.1,0.2,0.1,0.3c0,0.1-0.1,0.5-0.4,1.2v1.2
		c0.4-0.7,0.8-1.5,1.2-2.2c0.5-0.9,0.9-1.4,1.2-1.5c0.4-0.1,1,0.2,1.7,0.7C-27.8,332.3-27.4,332.7-27.3,333.1z"/>
	<path class="st2" d="M-18,332c1,0.5,1.7,1.4,2.2,2.7c0.5,1.2,0.7,2.7,0.7,4.4c0,2.3-0.4,4.4-1.2,6.1c-0.9,1.8-2,2.7-3.3,2.5
		c-0.5-0.1-1.2-0.3-2.2-0.4c-0.7-0.1-1.4-0.2-1.9-0.4c-1-0.3-1.8-1.1-2.4-2.5c-0.5-1.3-0.8-2.9-0.8-4.6c0-1.8,0.3-3.4,0.8-4.9
		c0.6-1.6,1.5-2.7,2.6-3.4c0.2-0.1,0.5-0.2,0.8-0.2c0.3,0,1,0.1,2.1,0.3C-19.9,331.7-19,331.8-18,332z M-20.9,334.3
		c-0.5,0-0.9,0.6-1.3,1.7c-0.4,1.1-0.6,2.2-0.6,3.3c0,1.2,0.1,2.5,0.4,3.7c0.3,1.3,0.7,2,1.1,2.1c0.6,0.1,1-0.5,1.5-1.9
		c0.4-1.3,0.6-2.8,0.6-4.4c0-0.9-0.1-1.8-0.3-2.6C-19.7,334.9-20.2,334.3-20.9,334.3z"/>
	<path class="st2" d="M-1.7,333.1c0,0-0.1,0.2-0.3,0.5c-0.1,0.2-0.2,0.4-0.2,0.6v11.4c0,2.9-1.1,4.7-3.2,5.5c-1,0.4-1.9,0.6-2.7,0.6
		c-1.2,0-2.2-0.4-3.1-1.2c-0.2-0.2-0.7-0.7-1.2-1.4c0,0-0.2-0.2-0.5-0.5c-0.2-0.2-0.3-0.4-0.3-0.6c0-0.3,0.2-0.5,0.8-0.6
		c0.1,0,0.2,0,0.3,0c0.4,0,0.8,0.1,1.4,0.2c0.5,0.2,0.9,0.3,1.1,0.6c0.3,0.3,0.6,0.7,0.9,1.1c0.3,0.4,0.6,0.6,1,0.6
		c0.7,0.1,1.2-0.4,1.4-1.5c0.1-0.5,0.2-1.4,0.2-2.7c-0.1,0.1-0.2,0.3-0.5,0.7c-0.2,0.3-0.4,0.5-0.5,0.6c-0.2,0.2-0.4,0.3-0.6,0.3
		c-0.9,0-1.7-0.3-2.3-0.8c-1.9-1.6-2.8-3.9-2.8-6.9c0-1.9,0.4-3.6,1.2-5.2c0.8-1.6,2-2.7,3.3-3.1c0.1,0,0.2-0.1,0.3-0.1
		c0.3,0,0.6,0.1,0.9,0.4c0.3,0.2,0.6,0.5,0.9,0.7c0.1-0.3,0.2-0.6,0.3-0.9c0.1-0.3,0.3-0.4,0.5-0.5c0.4-0.1,1,0.1,1.9,0.4
		s1.5,0.5,1.6,0.7C-1.6,332.5-1.6,332.8-1.7,333.1z M-6.3,339.5c0.1-1.2,0.2-2.2,0.2-2.9c0-1.4-0.2-2.2-0.7-2.4
		c-0.4-0.1-0.8,0.5-1.3,1.8s-0.8,2.6-0.8,3.7c0,2,0.2,3.7,0.7,4.9C-7.1,343-6.5,341.3-6.3,339.5z"/>
	<path class="st2" d="M10.5,333.1c0.1,0.3,0,0.5-0.3,0.7c-0.2,0.1-0.4,0.2-0.6,0.3c-1.1,1.7-2.6,3.9-4.4,6.7c0,2.8,0,4.2,0,4.3
		c0,0.1,0.1,0.3,0.2,0.7c0.1,0.4,0.2,0.6,0.2,0.8c0,0.3-0.1,0.6-0.4,0.7c-0.2,0.1-0.5,0.1-0.8,0.1c-0.7,0-1.4-0.1-2.2-0.4
		c-1-0.3-1.5-0.8-1.5-1.3c0-0.2,0.1-0.4,0.2-0.8s0.2-0.6,0.2-0.9v-10.3c-0.2-1-0.3-1.5-0.3-1.5c0-0.5,0.2-0.9,0.7-1
		c0.2-0.1,0.5-0.1,0.8-0.1c0.6,0,1.2,0.1,1.9,0.3c0.7,0.2,1.1,0.4,1.2,0.6c0,0.1,0.1,0.2,0.1,0.3c0,0.1-0.1,0.5-0.4,1.2v1.2
		c0.4-0.7,0.8-1.5,1.2-2.2c0.5-0.9,0.9-1.4,1.2-1.5c0.4-0.1,1,0.2,1.7,0.7C10,332.3,10.4,332.7,10.5,333.1z"/>
	<path class="st2" d="M21.8,342.3c0.2,0.3-0.2,1-1,2.3c-0.9,1.4-1.8,2.3-2.7,2.8c-0.1,0.1-0.3,0.1-0.5,0.1c-0.7,0-1.6-0.2-2.7-0.6
		c-1.2-0.4-1.9-0.9-2.3-1.4c-1-1.3-1.5-3.1-1.5-5.4c0-2.2,0.4-4.1,1.3-5.8c1-1.8,2.2-2.7,3.6-2.8c0.5,0,1.2,0.1,2,0.4
		c0.9,0.4,1.7,0.9,2.3,1.5c0.2,0.2,0.3,0.6,0.4,1.4c0.2,0.8,0.3,1.6,0.3,2.4c0,1.2-0.2,2-0.6,2.4c-1.8,0.6-3.6,0.9-5.5,1
		c0,0.8,0.1,1.7,0.3,2.7c0.2,0.9,0.5,1.4,0.8,1.4c0.3,0,0.8-0.3,1.2-0.9c0.4-0.5,0.7-0.9,0.8-1.3c0.1-0.5,0.3-1.1,0.5-1.6
		c0.3,0,0.8,0.1,1.6,0.4C21.2,341.8,21.6,342.1,21.8,342.3z M17.2,334.4c-0.3,0-0.7,0.4-1.2,1.4c-0.5,1-0.8,1.9-0.9,2.8
		c0.8,0,1.4-0.2,1.9-0.6c0.3-0.2,0.4-1.1,0.4-2.6C17.3,334.7,17.2,334.4,17.2,334.4z"/>
	<path class="st2" d="M33.5,344.3c0,1-0.3,1.7-0.9,2.3c-0.6,0.6-1.5,0.9-2.7,0.9c-0.3,0-0.6,0-0.9-0.1c-0.6-0.2-0.9-0.2-0.9-0.3
		c-0.3-0.1-0.6-0.1-0.9-0.2c-0.3-0.1-0.6-0.2-0.8-0.4c-0.4-0.3-0.8-0.8-1.1-1.4c-0.3-0.5-0.6-1-0.9-1.5c-0.3-0.5-0.4-0.8-0.4-0.9
		c0-0.2,0.2-0.4,0.5-0.5c0.1,0,0.2-0.1,0.5-0.1c0.5,0,1.2,0.1,2,0.2c0.8,0.1,1.2,0.2,1.3,0.3c0.1,0.1,0.2,0.6,0.3,1.5
		c0.1,0.8,0.3,1.2,0.5,1.2c0.4,0,0.6-0.5,0.6-1.6c0-1.4-0.4-2.2-1.1-2.6c-1.7-0.8-2.8-1.5-3.3-2.1c-0.6-0.7-1-1.9-1-3.4
		c0-1,0.3-1.9,0.8-2.8c0.5-0.9,1.1-1.4,1.8-1.6c0.3-0.1,1.3,0.3,3,1c0.2,0.1,0.6,0.1,1.4,0.3c0.5,0.1,0.9,0.3,1.1,0.5
		c0.3,0.4,0.5,1,0.6,1.9c0,0.6,0,1.3,0,1.9c0.1,0.6,0.2,0.9,0.2,1c0,0.5-0.2,0.8-0.7,0.8c-0.2,0-0.7-0.1-1.4-0.3
		c-0.8-0.3-1.3-0.5-1.5-0.8c-0.1-0.1-0.1-0.7-0.2-2c-0.1-1.2-0.2-1.7-0.4-1.7c-0.3,0-0.5,0.3-0.7,1c-0.2,0.7-0.3,1.4-0.3,2.1
		c0,0.9,0.2,1.5,0.6,1.7c0.8,0.5,1.7,0.9,2.5,1.4s1.4,1,1.8,1.5C33.2,342.3,33.5,343.2,33.5,344.3z"/>
	<path class="st2" d="M45.1,344.3c0,1-0.3,1.7-0.9,2.3c-0.6,0.6-1.5,0.9-2.7,0.9c-0.3,0-0.6,0-0.9-0.1c-0.6-0.2-0.9-0.2-0.9-0.3
		c-0.3-0.1-0.6-0.1-0.9-0.2c-0.3-0.1-0.6-0.2-0.8-0.4c-0.4-0.3-0.8-0.8-1.1-1.4c-0.3-0.5-0.6-1-0.9-1.5c-0.3-0.5-0.4-0.8-0.4-0.9
		c0-0.2,0.2-0.4,0.5-0.5c0.1,0,0.2-0.1,0.5-0.1c0.5,0,1.2,0.1,2,0.2c0.8,0.1,1.2,0.2,1.3,0.3c0.1,0.1,0.2,0.6,0.3,1.5
		c0.1,0.8,0.3,1.2,0.5,1.2c0.4,0,0.6-0.5,0.6-1.6c0-1.4-0.4-2.2-1.1-2.6c-1.7-0.8-2.8-1.5-3.3-2.1c-0.6-0.7-1-1.9-1-3.4
		c0-1,0.3-1.9,0.8-2.8c0.5-0.9,1.1-1.4,1.8-1.6c0.3-0.1,1.3,0.3,3,1c0.2,0.1,0.6,0.1,1.4,0.3c0.5,0.1,0.9,0.3,1.1,0.5
		c0.3,0.4,0.5,1,0.6,1.9c0,0.6,0,1.3,0,1.9c0.1,0.6,0.2,0.9,0.2,1c0,0.5-0.2,0.8-0.7,0.8c-0.2,0-0.7-0.1-1.4-0.3
		c-0.8-0.3-1.3-0.5-1.5-0.8c-0.1-0.1-0.1-0.7-0.2-2c-0.1-1.2-0.2-1.7-0.4-1.7c-0.3,0-0.5,0.3-0.7,1c-0.2,0.7-0.3,1.4-0.3,2.1
		c0,0.9,0.2,1.5,0.6,1.7c0.8,0.5,1.7,0.9,2.5,1.4s1.4,1,1.8,1.5C44.9,342.3,45.1,343.2,45.1,344.3z"/>
	<path class="st2" d="M59.3,337.3c0,0.3,0.1,0.5,0.1,0.8c0,1.4-0.6,3-1.8,4.7c-1,1.3-2.2,2.5-3.6,3.6c-1.3,1-2.2,1.4-2.7,1.3
		c-0.5-0.1-1.4-0.5-2.8-1.2s-2-1.2-2.1-1.4c0-0.1-0.1-0.1-0.1-0.2c0-0.1,0-0.2,0.1-0.4c0.1-0.2,0.1-0.3,0.1-0.4v-16.8
		c0-0.3,0.4-0.4,1.1-0.4c0.3,0,0.7,0,0.9,0.1c0.8-0.5,1.8-1,3.1-1.4s2.3-0.6,3.2-0.6c0.5,0,0.9,0.1,1.2,0.2c0.3,0.1,0.5,0.4,0.8,0.8
		c0.3,0.5,0.5,0.8,0.6,0.9c0,0,0.3,0.3,0.9,0.7c0.3,0.3,0.5,0.5,0.6,0.8c0.1,0.2,0.1,0.4,0.1,0.7c0,1.4-0.9,2.9-2.7,4.5
		C58.1,334.9,59.1,336.2,59.3,337.3z M54.8,328.9c0-0.1-0.1-0.1-0.3-0.1c-0.4,0-1,0.2-1.9,0.6c-0.8,0.4-1.4,0.8-1.7,1.2v2.7
		c1.1-0.9,2.1-1.8,2.9-2.7C54.6,329.7,54.9,329.1,54.8,328.9z M55.7,336.6c-0.5,0-1.2,0.2-2.3,0.7c-1.2,0.5-2,0.9-2.5,1.4v4.8
		c1.1-0.3,2.2-1.3,3.3-2.9C55.3,339,55.8,337.6,55.7,336.6z"/>
	<path class="st2" d="M72.6,346.3c0,0.2-0.1,0.5-0.3,0.6c-0.2,0.2-0.4,0.2-0.7,0.2c-2.1-0.3-3.3-0.7-3.6-1.2c0-0.1-0.1-0.1-0.1-0.2
		c0-0.1,0-0.2,0.1-0.3c0.1-0.1,0.1-0.2,0.1-0.3s0.1-0.2,0.1-0.2c0-0.1,0-0.4,0-0.9c-0.2,0.2-0.5,0.6-0.9,1.2
		c-0.4,0.7-0.8,1.3-1.1,1.6c-0.6,0.5-1.2,0.8-1.9,0.8c-0.4,0-0.8-0.2-1.2-0.5c-0.2-0.2-0.5-0.5-1-1c-0.8-0.9-1.3-1.4-1.4-1.5
		c-0.4-0.5-0.5-0.9-0.5-1.4c0-0.1,0-0.3,0.1-0.4c0.3-1.5,1.4-3,3.1-4.3c1.2-1,3-2,5.3-3.1c0-0.6-0.1-0.9-0.4-1.1
		c-0.2-0.1-0.8,0.1-1.8,0.6c-1,0.5-1.8,0.9-2.2,1.3c-0.1,0.1-0.4,0.3-0.7,0.6c-0.3,0.2-0.6,0.2-0.8,0.2c-0.2-0.1-0.6-0.4-1.2-0.9
		s-1-1-1-1.1c-0.1-0.5,0-0.8,0.4-1.1c0,0,0.4-0.1,1-0.3c0.6-0.3,1.3-0.7,1.9-1c1.4-0.6,2.5-1,3.4-1c0.4,0,0.8,0.2,1.4,0.6
		c0.5,0.4,0.9,0.8,1.4,1.2c0.5,0.4,0.9,0.8,1.4,1.1c0.6,0.5,0.8,1,0.8,1.4v9.8C72.5,345.8,72.6,346.1,72.6,346.3z M68.4,338.7
		c-0.8,0.3-1.6,0.8-2.2,1.5c-0.5,0.6-0.9,1.1-1.4,1.6c-0.4,0.4-0.7,0.8-1,1.4c-0.3,0.6-0.5,1-0.5,1.3c0,0.1,0.1,0.2,0.2,0.2
		c0.4,0,1.2-0.8,2.4-2.4C67.2,340.8,68,339.6,68.4,338.7z"/>
	<path class="st2" d="M84.8,333.1c0.1,0.3,0,0.5-0.3,0.7c-0.2,0.1-0.4,0.2-0.6,0.3c-1.1,1.7-2.6,3.9-4.4,6.7c0,2.8,0,4.2,0,4.3
		c0,0.1,0.1,0.3,0.2,0.7c0.1,0.4,0.2,0.6,0.2,0.8c0,0.3-0.1,0.6-0.4,0.7c-0.2,0.1-0.5,0.1-0.8,0.1c-0.7,0-1.4-0.1-2.2-0.4
		c-1-0.3-1.5-0.8-1.5-1.3c0-0.2,0.1-0.4,0.2-0.8c0.1-0.3,0.2-0.6,0.2-0.9v-10.3c-0.2-1-0.3-1.5-0.3-1.5c0-0.5,0.2-0.9,0.7-1
		c0.2-0.1,0.5-0.1,0.8-0.1c0.6,0,1.2,0.1,1.9,0.3s1.1,0.4,1.2,0.6c0,0.1,0.1,0.2,0.1,0.3c0,0.1-0.1,0.5-0.4,1.2v1.2
		c0.4-0.7,0.8-1.5,1.2-2.2c0.5-0.9,0.9-1.4,1.2-1.5c0.4-0.1,1,0.2,1.7,0.7C84.2,332.3,84.7,332.7,84.8,333.1z"/>
	<path class="st2" d="M86.6,344c0,0.2-0.1,0.5-0.3,1c-0.3,0.5-0.4,0.9-0.4,1.2c0,0.1,0,0.3,0,0.6c-0.1,0.5-0.2,0.8-0.4,0.9
		c-0.2,0.1-0.8-0.1-1.7-0.5s-1.4-0.7-1.5-1c-0.1-0.2,0-0.6,0.4-1.5c0.3-0.7,0.5-1.2,0.7-1.6c0.1-0.2,0.3-0.3,0.6-0.3
		c-0.1,0,0.4,0.1,1.6,0.3C86.2,343.4,86.6,343.6,86.6,344z"/>
	<path class="st2" d="M91.9,332.8c0.1,0.1,0.1,0.2,0.1,0.3c0,0.1-0.1,0.4-0.3,0.8c-0.2,0.4-0.3,0.7-0.3,0.9v12.7c0,0,0,0.1,0,0.3
		c0,0.2,0,0.4,0,0.6c0,1.6-0.5,2.7-1.4,3.3c-0.2,0.2-0.7,0.2-1.3,0.2c-1.3,0-2.4-0.2-3.5-0.5c-0.5-0.2-1.1-0.5-1.9-1.1
		c-0.9-0.7-1.4-1.2-1.4-1.6c0-0.2,0.2-0.5,0.5-0.7c0.1,0,0.2-0.1,0.4-0.1c1,0,1.9,0.2,2.6,0.5c0.2,0.2,0.3,0.4,0.5,0.6
		c0.3,0.3,0.6,0.5,1.1,0.5c0.2,0,0.4-1.1,0.4-3.2v-13.2c-0.2-0.7-0.3-1.1-0.3-1.3c0-0.2,0.3-0.3,1-0.3c0.5,0,1.3,0.2,2.2,0.5
		C91.1,332.2,91.7,332.5,91.9,332.8z M92,328.4c0.1,0.1,0.1,0.3,0.1,0.5c0,0.4-0.1,0.9-0.2,1.3c-0.2,0.5-0.3,0.8-0.6,0.9
		c-0.2,0.1-0.9-0.1-2.2-0.6s-2-0.8-2.1-0.9c-0.1-0.1-0.1-0.2-0.1-0.4c0-0.5,0.1-1,0.4-1.5c0.3-0.6,0.6-0.9,0.9-1
		c0.4-0.1,1.1,0.1,2.1,0.5C91.3,327.6,91.9,328,92,328.4z"/>
	<path class="st2" d="M103.3,344.3c0,1-0.3,1.7-0.9,2.3c-0.6,0.6-1.5,0.9-2.7,0.9c-0.3,0-0.6,0-0.9-0.1c-0.6-0.2-0.9-0.2-0.9-0.3
		c-0.3-0.1-0.6-0.1-0.9-0.2c-0.3-0.1-0.6-0.2-0.8-0.4c-0.4-0.3-0.8-0.8-1.1-1.4c-0.3-0.5-0.6-1-0.9-1.5c-0.3-0.5-0.4-0.8-0.4-0.9
		c0-0.2,0.2-0.4,0.5-0.5c0.1,0,0.2-0.1,0.5-0.1c0.5,0,1.2,0.1,2,0.2c0.8,0.1,1.2,0.2,1.3,0.3c0.1,0.1,0.2,0.6,0.3,1.5
		c0.1,0.8,0.3,1.2,0.5,1.2c0.4,0,0.6-0.5,0.6-1.6c0-1.4-0.4-2.2-1.1-2.6c-1.7-0.8-2.8-1.5-3.3-2.1c-0.6-0.7-1-1.9-1-3.4
		c0-1,0.3-1.9,0.8-2.8c0.5-0.9,1.1-1.4,1.8-1.6c0.3-0.1,1.3,0.3,3,1c0.2,0.1,0.6,0.1,1.4,0.3c0.5,0.1,0.9,0.3,1.1,0.5
		c0.3,0.4,0.5,1,0.6,1.9c0,0.6,0,1.3,0,1.9c0.1,0.6,0.2,0.9,0.2,1c0,0.5-0.2,0.8-0.7,0.8c-0.2,0-0.7-0.1-1.4-0.3
		c-0.8-0.3-1.3-0.5-1.5-0.8c-0.1-0.1-0.1-0.7-0.2-2c-0.1-1.2-0.2-1.7-0.4-1.7c-0.3,0-0.5,0.3-0.7,1c-0.2,0.7-0.3,1.4-0.3,2.1
		c0,0.9,0.2,1.5,0.6,1.7c0.8,0.5,1.7,0.9,2.5,1.4s1.4,1,1.8,1.5C103.1,342.3,103.3,343.2,103.3,344.3z"/>
</g>
</svg>
