<?xml version="1.0" encoding="utf-8"?>
<!-- Generator: Adobe Illustrator 19.1.0, SVG Export Plug-In . SVG Version: 6.00 Build 0)  -->
<svg version="1.1" id="Layer_1" xmlns="http://www.w3.org/2000/svg" xmlns:xlink="http://www.w3.org/1999/xlink" x="0px" y="0px"
	 viewBox="-143 222 312.6 158" style="enable-background:new -143 222 312.6 158;" xml:space="preserve">
<style type="text/css">
	.st0{fill:none;stroke:#0FA0CE;stroke-width:4;stroke-miterlimit:10;}
	.st1{fill:none;stroke:#0FA0CE;stroke-width:4;stroke-miterlimit:10;stroke-dasharray:7.0439,4.0251;}
	.st2{fill:#0FA0CE;}
</style>
<g>
	<g>
		<path class="st0" d="M-108.4,240.2c0,1.1,0,2.3,0.1,3.5"/>
		<path class="st1" d="M-108.2,247.8c1,16.5,5.8,42.5,25.8,60.4c1.9,1.7,4,3.4,6.4,5"/>
		<path class="st0" d="M-74.3,314.3c1,0.6,1.9,1.2,3,1.8"/>
		<g>
			<polygon class="st2" points="-123.5,253.2 -120.6,255.8 -108.2,241.7 -95.1,255.1 -92.4,252.4 -108.4,236.1 			"/>
		</g>
	</g>
</g>
<g>
	<path class="st2" d="M-52.9,312.3l-0.8,3.8h-3.2l3.6-16.8h3.9l3.3,16.8h-3.2l-0.7-3.8H-52.9z M-50.2,309.7l-0.5-3.5
		c-0.2-1-0.4-2.7-0.5-3.8h-0.1c-0.2,1.1-0.4,2.9-0.6,3.8l-0.6,3.5H-50.2z"/>
	<path class="st2" d="M-44.4,298.8h3.3v17.3h-3.3V298.8z"/>
	<path class="st2" d="M-38.9,313.2c0.5,0.3,1.4,0.7,2.2,0.7c0.9,0,1.3-0.4,1.3-1.1c0-0.6-0.3-1-1.4-1.6c-2-1.1-2.5-2.4-2.5-3.5
		c0-2.2,1.6-3.8,4-3.8c1,0,1.8,0.2,2.5,0.5l-0.6,2.4c-0.5-0.3-1-0.5-1.7-0.5c-0.8,0-1.2,0.5-1.2,1s0.3,0.8,1.4,1.5
		c1.8,1,2.5,2.3,2.5,3.7c0,2.5-1.8,3.8-4.3,3.8c-1,0-2.2-0.3-2.8-0.7L-38.9,313.2z"/>
	<path class="st2" d="M-21.8,310c0,5.1-2.8,6.3-4.7,6.3c-2.9,0-4.7-2.3-4.7-6.3c0-4.4,2.3-6.3,4.7-6.3
		C-23.5,303.7-21.8,306.1-21.8,310z M-27.9,310c0,2.1,0.3,3.8,1.5,3.8c1,0,1.3-2,1.3-3.8c0-1.7-0.3-3.8-1.4-3.8
		C-27.6,306.2-27.9,308.3-27.9,310z"/>
	<path class="st2" d="M-15.9,307.6c0-1.3-0.1-2.5-0.1-3.7h2.8l0.2,1.4h0c0.6-0.9,1.6-1.6,2.9-1.6c1.4,0,2.2,0.6,2.7,1.6h0
		c0.3-0.5,0.8-0.9,1.2-1.2c0.5-0.3,1.1-0.4,1.7-0.4c2.2,0,3.1,1.7,3.1,4.7v7.7h-3.2v-7.2c0-1.4-0.2-2.5-1.2-2.5
		c-0.6,0-1,0.4-1.2,1.1c0,0.2-0.1,0.5-0.1,0.8v7.7h-3.2v-7.7c0-0.9-0.1-2-1.1-2c-0.5,0-1,0.4-1.2,1.1c-0.1,0.2-0.1,0.6-0.1,0.9v7.7
		h-3.2V307.6z"/>
	<path class="st2" d="M6.5,316.1l-0.2-1.2h0c-0.7,0.9-1.6,1.4-2.7,1.4c-1.8,0-3.2-1.5-3.2-3.7c0-3.2,2.8-4.5,5.6-4.5v-0.3
		c0-1-0.6-1.6-1.7-1.6c-1,0-1.8,0.2-2.5,0.7l-0.6-2.2c0.7-0.4,2.1-0.9,3.8-0.9c3.7,0,4.3,2.6,4.3,5.1v4.5c0,1,0,2,0.2,2.8H6.5z
		 M6.1,310.2c-1.1,0-2.6,0.4-2.6,2.1c0,1.2,0.7,1.7,1.2,1.7c0.5,0,1.1-0.3,1.3-1c0-0.2,0.1-0.4,0.1-0.6V310.2z"/>
	<path class="st2" d="M20.5,298.8v13.7c0,1.2,0,2.5,0.1,3.6h-2.8l-0.2-1.4h0c-0.5,0.8-1.4,1.6-2.5,1.6c-2.6,0-3.8-2.9-3.8-6.3
		c0-4.2,1.8-6.3,3.9-6.3c1.1,0,1.8,0.5,2,1.2h0v-6.1H20.5z M17.2,308.6c0-0.2,0-0.5,0-0.7c-0.1-0.8-0.5-1.4-1.2-1.4
		c-1.1,0-1.6,1.7-1.6,3.6c0,2.3,0.6,3.5,1.5,3.5c0.4,0,0.9-0.2,1.1-1.1c0.1-0.2,0.1-0.5,0.1-0.8V308.6z"/>
	<path class="st2" d="M25.5,311.2c0,1.9,1.1,2.6,2.6,2.6c0.9,0,1.7-0.2,2.3-0.4l0.5,2.3c-0.8,0.3-2.1,0.5-3.4,0.5
		c-3.3,0-5.1-2.2-5.1-6c0-4.1,2.1-6.5,4.9-6.5c2.6,0,4.1,2.1,4.1,5.8c0,0.9,0,1.3-0.1,1.7H25.5z M28.4,308.9c0-1.6-0.4-2.8-1.4-2.8
		c-1.1,0-1.5,1.6-1.5,2.8H28.4z"/>
	<path class="st2" d="M39.7,303.9l0.7,5.3c0.2,1.3,0.3,2.5,0.4,3.7h0.1c0.2-1.1,0.5-2.5,0.7-3.6l1.1-5.3h2.5l1,5.2
		c0.2,1.4,0.5,2.6,0.6,3.8h0.1c0.1-1.1,0.2-2.4,0.4-3.7l0.7-5.2h3.2l-3.1,12.2h-2.8l-0.9-4.3c-0.2-1.1-0.5-2.4-0.6-3.8h0
		c-0.1,1.4-0.4,2.7-0.7,3.8l-1,4.2h-2.8l-3-12.2H39.7z"/>
	<path class="st2" d="M55.9,300.7c0,1-0.7,1.8-1.7,1.8c-0.9,0-1.6-0.7-1.6-1.8c0-1.1,0.8-1.8,1.7-1.8
		C55.2,298.9,55.9,299.6,55.9,300.7z M52.6,316.1v-12.2h3.3v12.2H52.6z"/>
	<path class="st2" d="M62.1,300.6v3.3h2.4v2.3h-2.4v5.6c0,1.4,0.6,1.8,1.2,1.8c0.3,0,0.6,0,0.9-0.1l0,2.5c-0.4,0.1-1.1,0.2-2,0.2
		c-1,0-1.8-0.2-2.3-0.8c-0.7-0.6-1-1.6-1-3.5v-5.8h-1.4v-2.3h1.4v-2.5L62.1,300.6z"/>
	<path class="st2" d="M66,298.8h3.3v6.3h0c0.3-0.4,0.7-0.8,1-1c0.5-0.3,1-0.4,1.6-0.4c2.2,0,3.1,1.9,3.1,5v7.4h-3.3v-7.4
		c0-1.2-0.2-2.2-1.2-2.2c-0.5,0-1,0.3-1.3,1.2c0,0.2-0.1,0.6-0.1,0.9v7.6H66V298.8z"/>
	<path class="st2" d="M-55.6,329.5c0.9-0.2,2.2-0.3,3.4-0.3c1.9,0,3.5,0.3,4.6,1.3c1,0.9,1.4,2.3,1.4,3.7c0,1.8-0.5,3.1-1.4,4
		c-1,1.1-2.7,1.6-4.1,1.6c-0.2,0-0.4,0-0.6,0v6.3h-3.3V329.5z M-52.3,337.2c0.2,0,0.3,0,0.5,0c1.6,0,2.4-1.2,2.4-2.7
		c0-1.5-0.6-2.6-2.1-2.6c-0.3,0-0.6,0-0.8,0.1V337.2z"/>
	<path class="st2" d="M-44.5,337.6c0-1.2,0-2.5-0.1-3.7h2.8l0.2,1.8h0.1c0.5-1.3,1.5-2,2.4-2c0.3,0,0.5,0,0.7,0v3.2
		c-0.2-0.1-0.4-0.1-0.7-0.1c-0.7,0-1.6,0.5-2,1.8c-0.1,0.3-0.1,0.7-0.1,1.2v6.2h-3.3V337.6z"/>
	<path class="st2" d="M-28.3,340c0,5.1-2.8,6.3-4.7,6.3c-2.9,0-4.7-2.3-4.7-6.3c0-4.4,2.3-6.3,4.7-6.3
		C-30,333.7-28.3,336.1-28.3,340z M-34.4,340c0,2.1,0.3,3.8,1.5,3.8c1,0,1.3-2,1.3-3.8c0-1.7-0.3-3.8-1.4-3.8
		C-34.1,336.2-34.4,338.3-34.4,340z"/>
	<path class="st2" d="M-17.4,333.9c0,1.1-0.1,2.4-0.1,3.9v7c0,2.6-0.5,4.1-1.5,5c-0.9,0.8-2.2,1.3-4,1.3c-1.1,0-2.2-0.2-3-0.6
		l0.6-2.5c0.6,0.3,1.4,0.5,2.3,0.5c1.6,0,2.3-1.1,2.3-3v-0.8h0c-0.4,0.8-1.3,1.2-2.2,1.2c-2.7,0-3.8-3-3.8-5.9
		c0-4.1,1.8-6.4,4.1-6.4c1,0,1.8,0.5,2.2,1.4h0.1l0.2-1.2H-17.4z M-20.8,338.4c0-0.3,0-0.7-0.1-0.9c-0.1-0.5-0.5-1-1-1
		c-1.2,0-1.6,1.6-1.6,3.6c0,2.3,0.6,3.4,1.6,3.4c0.4,0,0.8-0.2,1.1-0.9c0.1-0.3,0.1-0.7,0.1-1V338.4z"/>
	<path class="st2" d="M-15.3,337.6c0-1.2,0-2.5-0.1-3.7h2.8l0.2,1.8h0.1c0.5-1.3,1.5-2,2.4-2c0.3,0,0.5,0,0.7,0v3.2
		c-0.2-0.1-0.4-0.1-0.7-0.1c-0.7,0-1.6,0.5-2,1.8c-0.1,0.3-0.1,0.7-0.1,1.2v6.2h-3.3V337.6z"/>
	<path class="st2" d="M-5.3,341.2c0,1.9,1.1,2.6,2.6,2.6c0.9,0,1.7-0.2,2.3-0.4l0.5,2.3c-0.9,0.3-2.1,0.5-3.4,0.5
		c-3.3,0-5.1-2.2-5.1-6c0-4.1,2.1-6.5,4.9-6.5c2.6,0,4.1,2.1,4.1,5.8c0,0.9,0,1.3-0.1,1.7H-5.3z M-2.3,338.9c0-1.6-0.4-2.8-1.4-2.8
		c-1.1,0-1.5,1.6-1.5,2.8H-2.3z"/>
	<path class="st2" d="M2.4,343.2c0.5,0.3,1.4,0.7,2.2,0.7c0.8,0,1.3-0.4,1.3-1.1c0-0.6-0.4-1-1.4-1.6c-2-1.1-2.5-2.4-2.5-3.5
		c0-2.2,1.6-3.8,4-3.8c1,0,1.8,0.2,2.5,0.5l-0.6,2.4c-0.5-0.3-1-0.5-1.7-0.5c-0.8,0-1.2,0.5-1.2,1s0.3,0.8,1.4,1.5
		c1.8,1,2.5,2.3,2.5,3.7c0,2.5-1.8,3.8-4.3,3.8c-1,0-2.2-0.3-2.8-0.7L2.4,343.2z"/>
	<path class="st2" d="M10.5,343.2c0.5,0.3,1.4,0.7,2.2,0.7c0.8,0,1.3-0.4,1.3-1.1c0-0.6-0.4-1-1.4-1.6c-2-1.1-2.5-2.4-2.5-3.5
		c0-2.2,1.6-3.8,4-3.8c1,0,1.8,0.2,2.5,0.5l-0.6,2.4c-0.5-0.3-1-0.5-1.7-0.5c-0.8,0-1.2,0.5-1.2,1s0.3,0.8,1.4,1.5
		c1.8,1,2.5,2.3,2.5,3.7c0,2.5-1.8,3.8-4.3,3.8c-1,0-2.2-0.3-2.8-0.7L10.5,343.2z"/>
	<path class="st2" d="M19,329.5c1-0.2,2.3-0.3,3.7-0.3c1.6,0,3.1,0.2,4.3,1.2c0.9,0.8,1.3,1.9,1.3,3c0,1.5-0.8,2.9-2.4,3.7v0.1
		c1.9,0.5,3,2.2,3,4c0,1.4-0.5,2.5-1.2,3.3c-1,1.1-2.7,1.7-5.5,1.7c-1.2,0-2.3-0.1-3-0.2V329.5z M22.3,336.2H23c1.2,0,2.1-1,2.1-2.4
		c0-1.2-0.6-2.2-1.9-2.2c-0.3,0-0.6,0-0.8,0.1V336.2z M22.3,343.7c0.2,0,0.4,0,0.7,0c1.3,0,2.4-0.8,2.4-2.5c0-1.7-1.1-2.5-2.4-2.6
		h-0.7V343.7z"/>
	<path class="st2" d="M36.2,346.1l-0.2-1.2h0c-0.7,0.9-1.6,1.4-2.7,1.4c-1.8,0-3.2-1.5-3.2-3.7c0-3.2,2.8-4.5,5.6-4.5v-0.3
		c0-1-0.6-1.6-1.7-1.6c-1,0-1.8,0.2-2.5,0.7l-0.6-2.2c0.7-0.4,2.1-0.9,3.8-0.9c3.7,0,4.3,2.6,4.3,5.1v4.5c0,1,0,2,0.2,2.8H36.2z
		 M35.8,340.2c-1.1,0-2.6,0.4-2.6,2.1c0,1.2,0.7,1.7,1.2,1.7c0.5,0,1.1-0.3,1.3-1c0-0.2,0.1-0.4,0.1-0.6V340.2z"/>
	<path class="st2" d="M41.3,337.6c0-1.2,0-2.5-0.1-3.7H44l0.2,1.8h0.1c0.5-1.3,1.5-2,2.4-2c0.3,0,0.5,0,0.7,0v3.2
		c-0.2-0.1-0.4-0.1-0.7-0.1c-0.7,0-1.6,0.5-2,1.8c-0.1,0.3-0.1,0.7-0.1,1.2v6.2h-3.3V337.6z"/>
	<path class="st2" d="M47.6,344.2c0-1.2,0.9-2.2,1.9-2.2c1,0,1.9,0.8,1.9,2.2c0,1.3-0.8,2.2-1.9,2.2
		C48.5,346.3,47.6,345.5,47.6,344.2z"/>
	<path class="st2" d="M51.3,348.5c0.6-0.1,1.2-0.2,1.6-0.6c0.5-0.5,0.5-1.4,0.5-3.2v-10.7h3.3v11.3c0,2.7-0.6,4-1.6,4.8
		c-0.9,0.7-2.4,1-3.6,1L51.3,348.5z M56.7,330.7c0,1-0.8,1.8-1.7,1.8c-0.9,0-1.6-0.7-1.6-1.8c0-1.1,0.8-1.8,1.7-1.8
		S56.7,329.6,56.7,330.7z"/>
	<path class="st2" d="M58.9,343.2c0.5,0.3,1.4,0.7,2.2,0.7c0.8,0,1.3-0.4,1.3-1.1c0-0.6-0.4-1-1.4-1.6c-2-1.1-2.5-2.4-2.5-3.5
		c0-2.2,1.6-3.8,4-3.8c1,0,1.8,0.2,2.5,0.5l-0.6,2.4c-0.5-0.3-1-0.5-1.7-0.5c-0.8,0-1.2,0.5-1.2,1s0.3,0.8,1.4,1.5
		c1.8,1,2.5,2.3,2.5,3.7c0,2.5-1.8,3.8-4.3,3.8c-1,0-2.2-0.3-2.8-0.7L58.9,343.2z"/>
</g>
</svg>
